<svg xmlns="http://www.w3.org/2000/svg" width="158.4" height="157.666" viewBox="0 0 158.4 157.666">
  <g id="Problem_solving-pana" data-name="Problem solving-pana" transform="translate(-28.76 -29.22)">
    <g id="freepik--background-complete--inject-29" transform="translate(28.76 34.364)">
      <path id="Path_1218" data-name="Path 1218" d="M433.96,231.638l-3.149,1.682a3.024,3.024,0,0,1-1.311,4.161,2.882,2.882,0,0,1-3.335-.31,3.206,3.206,0,0,1-1.14-2.668c.064-1.165.805-2.594,3.128-3.352l-3.78-7.1-3.114,1.664,2.223,4.161a6.89,6.89,0,0,0-1.193,8.272c2.462,4.606,7.164,3.47,8.931,2.522C432.567,239.95,436.989,237.16,433.96,231.638Z" transform="translate(-281.431 -159.785)" fill="#ebebeb"/>
      <rect id="Rectangle_1626" data-name="Rectangle 1626" width="3.584" height="3.345" transform="matrix(-0.882, 0.471, -0.471, -0.882, 142.155, 62.81)" fill="#ebebeb"/>
      <path id="Path_1219" data-name="Path 1219" d="M104.48,58.482,107.4,59.49a2.624,2.624,0,0,1,3.409-1.614,2.494,2.494,0,0,1,1.781,2.3,2.761,2.761,0,0,1-1.022,2.294c-.78.645-2.138,1.012-3.972,0l-2.273,6.587,2.886,1,1.336-3.858a5.959,5.959,0,0,0,5.953-4.111c1.478-4.275-2.009-6.587-3.648-7.154C110.583,54.481,106.2,53.309,104.48,58.482Z" transform="translate(-77.505 -50.633)" fill="#ebebeb"/>
      <rect id="Rectangle_1627" data-name="Rectangle 1627" width="3.103" height="2.896" transform="translate(27.332 19.762) rotate(19.06)" fill="#ebebeb"/>
      <path id="Path_1220" data-name="Path 1220" d="M61.484,47.884l1.706-.492A1.511,1.511,0,0,1,64.259,45.5,1.425,1.425,0,0,1,65.848,46a1.592,1.592,0,0,1,.281,1.425,1.932,1.932,0,0,1-1.87,1.307l1.112,3.848,1.689-.488-.652-2.252a3.427,3.427,0,0,0,1.425-3.9A3.174,3.174,0,0,0,63.746,43.8,3.014,3.014,0,0,0,61.484,47.884Z" transform="translate(-49.699 -43.659)" fill="#f5f5f5"/>
      <rect id="Rectangle_1628" data-name="Rectangle 1628" width="1.781" height="1.664" transform="translate(15.895 9.705) rotate(-16.13)" fill="#f5f5f5"/>
      <path id="Path_1221" data-name="Path 1221" d="M438.012,168.369l-2.725-.075a2.313,2.313,0,0,1-2.44,2.262,2.2,2.2,0,0,1-2.1-1.464,2.44,2.44,0,0,1,.257-2.2c.484-.752,1.514-1.425,3.342-1.04l.171-6.145-2.7-.075-.1,3.6a5.254,5.254,0,0,0-3.919,5.037c-.11,3.983,3.438,5.009,4.966,5.052C433.929,173.353,437.93,173.178,438.012,168.369Z" transform="translate(-285.643 -118.315)" fill="#e0e0e0"/>
      <rect id="Rectangle_1629" data-name="Rectangle 1629" width="2.736" height="2.554" transform="matrix(-1, -0.028, 0.028, -1, 148.915, 40.132)" fill="#e0e0e0"/>
      <path id="Path_1222" data-name="Path 1222" d="M318.6,446.2v9.01h27.706V446.2Z" transform="translate(-215.344 -302.794)" fill="#f5f5f5"/>
      <path id="Path_1223" data-name="Path 1223" d="M315.33,439.13v2.519h29.84V439.13H315.33Z" transform="translate(-213.239 -298.243)" fill="#e0e0e0"/>
      <path id="Path_1224" data-name="Path 1224" d="M356.161,450.658h13.951v-9.01h.969V439.13h-15.5v2.287Z" transform="translate(-239.15 -298.243)" fill="#e0e0e0"/>
      <rect id="Rectangle_1630" data-name="Rectangle 1630" width="5.618" height="1.357" transform="translate(107.128 144.859)" fill="#e0e0e0"/>
      <rect id="Rectangle_1631" data-name="Rectangle 1631" width="7.214" height="2.864" transform="translate(106.405 147.913)" fill="#fff"/>
      <path id="Path_1225" data-name="Path 1225" d="M40.747,368.774a12.448,12.448,0,0,0-5.322-1.845,3.54,3.54,0,0,0-2.515.463.517.517,0,0,0-.26.46.559.559,0,0,0,.246.314,7.585,7.585,0,0,0,7.838.595" transform="translate(-31.264 -251.738)" fill="#e0e0e0"/>
      <path id="Path_1226" data-name="Path 1226" d="M44.76,356.683a25.985,25.985,0,0,1-3.438-3.025,8.678,8.678,0,0,1-2.155-3.986,1.6,1.6,0,0,1,.171-1.332,13.368,13.368,0,0,1,5.422,8.343" transform="translate(-35.412 -239.797)" fill="#e0e0e0"/>
      <path id="Path_1227" data-name="Path 1227" d="M54.981,357.237a12.38,12.38,0,0,1,.064-4.51A6.113,6.113,0,0,1,57.45,349a5.317,5.317,0,0,1-.064,3.538A17.246,17.246,0,0,1,55,357.55" transform="translate(-45.526 -240.222)" fill="#e0e0e0"/>
      <path id="Path_1228" data-name="Path 1228" d="M50.712,385.63A8.487,8.487,0,0,0,44,391.982a5.749,5.749,0,0,0,3.94-2.494c.983-1.268,1.664-2.654,2.747-3.837" transform="translate(-38.571 -263.802)" fill="#e0e0e0"/>
      <path id="Path_1229" data-name="Path 1229" d="M63.148,369.765a10.527,10.527,0,0,1,1.215-9.975,12.725,12.725,0,0,1-1.215,9.975" transform="translate(-50.423 -247.168)" fill="#e0e0e0"/>
      <path id="Path_1230" data-name="Path 1230" d="M61.081,399.624a7.62,7.62,0,0,0-7.282,4.19c-.089.182-.171.41-.05.574a.541.541,0,0,0,.485.139,6.36,6.36,0,0,0,3.755-1.938,36.575,36.575,0,0,1,3.121-2.968" transform="translate(-44.808 -272.801)" fill="#e0e0e0"/>
      <path id="Path_1231" data-name="Path 1231" d="M73.021,380.782a13.577,13.577,0,0,1-.135-7.57,3.678,3.678,0,0,1,1.617-2.458.321.321,0,0,1,.246-.046.356.356,0,0,1,.157.182,4.578,4.578,0,0,1,.381,2.173,13.557,13.557,0,0,1-.356,2.2,11.6,11.6,0,0,1-1.172,3.947,8.163,8.163,0,0,0-.452.862c-.139.292-.143.4-.271.631" transform="translate(-56.861 -254.191)" fill="#e0e0e0"/>
      <path id="Path_1232" data-name="Path 1232" d="M100.019,387.868a9.768,9.768,0,0,1,1.71-8.026c.125-.16.285-.331.488-.314.306.029.385.438.356.745a14.524,14.524,0,0,1-2.572,7.6" transform="translate(-74.466 -259.873)" fill="#e0e0e0"/>
      <path id="Path_1233" data-name="Path 1233" d="M102.87,399.549a11.674,11.674,0,0,0,9.58-1.949,7.752,7.752,0,0,0-5.187-.634,7.394,7.394,0,0,0-4.393,2.583" transform="translate(-76.468 -270.977)" fill="#e0e0e0"/>
      <path id="Path_1234" data-name="Path 1234" d="M104.857,390.527a11.077,11.077,0,0,1,8.7-5.027,5.329,5.329,0,0,1-2.85,3.146,15.942,15.942,0,0,1-4.175,1.218,2.973,2.973,0,0,0-1.678.663" transform="translate(-77.743 -263.719)" fill="#e0e0e0"/>
      <path id="Path_1235" data-name="Path 1235" d="M98.744,357.3a25.174,25.174,0,0,0,1.112-5.094,8.442,8.442,0,0,0-1.012-5.037,11.09,11.09,0,0,0-.15,10.306" transform="translate(-73.009 -239.044)" fill="#e0e0e0"/>
      <path id="Path_1236" data-name="Path 1236" d="M116.89,355.223a13.687,13.687,0,0,1,10.046-6.833,11.2,11.2,0,0,1-10.046,6.833" transform="translate(-85.494 -239.829)" fill="#e0e0e0"/>
      <path id="Path_1237" data-name="Path 1237" d="M113.42,368.482c2.936.445,5.433,2.319,8.194,3.456a3.641,3.641,0,0,0,1.849.356,1.443,1.443,0,0,0,.9-2.558,3.94,3.94,0,0,0-1.34-.816,14.921,14.921,0,0,0-9.337-.52" transform="translate(-83.26 -252.386)" fill="#e0e0e0"/>
      <path id="Path_1238" data-name="Path 1238" d="M108.624,375.05a3.547,3.547,0,0,1,1.425.983,15.29,15.29,0,0,0,6.181,3.181c.235.061.545.082.663-.132s-.025-.413-.16-.581a8.55,8.55,0,0,0-3.744-2.54,9.493,9.493,0,0,0-4.378-1.037" transform="translate(-80.163 -256.899)" fill="#e0e0e0"/>
      <path id="Path_1239" data-name="Path 1239" d="M103.27,339.838a11.756,11.756,0,0,0,9,3.057.62.62,0,0,0,.41-.146c.224-.246-.046-.627-.31-.834a10.361,10.361,0,0,0-9.1-2.081" transform="translate(-76.726 -234.117)" fill="#e0e0e0"/>
      <path id="Path_1240" data-name="Path 1240" d="M109.65,333.678a12.526,12.526,0,0,1,11.225-1.853,8.906,8.906,0,0,1-5.344,2.348,16.958,16.958,0,0,1-5.878-.5" transform="translate(-80.833 -228.786)" fill="#e0e0e0"/>
      <path id="Path_1241" data-name="Path 1241" d="M104.378,307.7c-.26-2.64-.093-4.724-.274-7.378,0-.21-.061-.467-.26-.542-.274-.107-.506.232-.6.513a8.468,8.468,0,0,0,1.126,7.349" transform="translate(-76.462 -208.526)" fill="#e0e0e0"/>
      <path id="Path_1242" data-name="Path 1242" d="M106.58,307.871a15.529,15.529,0,0,0,4.375-4.25,5.824,5.824,0,0,0,1.4-4.051,4.2,4.2,0,0,0-3.156,1.568,8.814,8.814,0,0,0-1.607,3.235c-.356,1.161-.595,2.358-1.008,3.5" transform="translate(-78.856 -208.401)" fill="#e0e0e0"/>
      <path id="Path_1243" data-name="Path 1243" d="M118.556,307.569a35.269,35.269,0,0,0,10.766-6.348,5.5,5.5,0,0,0-4.043.313,12.656,12.656,0,0,0-6.769,6.006" transform="translate(-86.536 -209.293)" fill="#e0e0e0"/>
      <path id="Path_1244" data-name="Path 1244" d="M110,321.3a22.105,22.105,0,0,0,5.978.032,24.794,24.794,0,0,0,5.579-1.856.652.652,0,0,0,.378-.289.431.431,0,0,0-.135-.477,1.118,1.118,0,0,0-.474-.221,10.362,10.362,0,0,0-6.031.356A28.082,28.082,0,0,0,110,321.3" transform="translate(-81.058 -220.385)" fill="#e0e0e0"/>
      <path id="Path_1245" data-name="Path 1245" d="M76.329,324.86a10.561,10.561,0,0,1-.1-8.75,6.693,6.693,0,0,1,.773,4.35c-.15,1.5-.606,3.035-.634,4.535" transform="translate(-58.741 -219.049)" fill="#e0e0e0"/>
      <path id="Path_1246" data-name="Path 1246" d="M46.54,333a12.191,12.191,0,0,0-9.07,3.862,8.5,8.5,0,0,0,4.966-.919,25.512,25.512,0,0,0,4.275-2.85" transform="translate(-34.367 -229.92)" fill="#e0e0e0"/>
      <path id="Path_1247" data-name="Path 1247" d="M37.292,329.3a12.627,12.627,0,0,0-4.841.15,5.789,5.789,0,0,0-3.691,3.128,8.728,8.728,0,0,0,4.539-.859,25.8,25.8,0,0,0,3.994-2.419" transform="translate(-28.76 -227.439)" fill="#e0e0e0"/>
      <path id="Path_1248" data-name="Path 1248" d="M50.3,325.148a15.291,15.291,0,0,0-4.752-2.373,5.179,5.179,0,0,0-4.955,1.2,9.24,9.24,0,0,0,4.735.923,16.451,16.451,0,0,1,5.159.52" transform="translate(-36.376 -223.231)" fill="#e0e0e0"/>
      <path id="Path_1249" data-name="Path 1249" d="M62.636,311.183a11.084,11.084,0,0,1-2.494-10.413,15.85,15.85,0,0,1,2.494,10.413" transform="translate(-48.706 -209.174)" fill="#e0e0e0"/>
      <path id="Path_1250" data-name="Path 1250" d="M87.52,295.235c.481-1.119.816-2.287,1.247-3.424a9.921,9.921,0,0,1,1.781-3.16A4.685,4.685,0,0,1,93.7,287.02a12.7,12.7,0,0,1-6.12,8.233" transform="translate(-66.587 -200.322)" fill="#e0e0e0"/>
      <path id="Path_1251" data-name="Path 1251" d="M72.1,306.111a16.413,16.413,0,0,0-2.789-3.4,4.683,4.683,0,0,0-3.8-1,8.835,8.835,0,0,0,6.587,4.393" transform="translate(-52.418 -209.723)" fill="#e0e0e0"/>
      <path id="Path_1252" data-name="Path 1252" d="M82.213,295.5a18.882,18.882,0,0,1-1.254-4.065,6.38,6.38,0,0,1,.634-4.14,9.38,9.38,0,0,1,.691,8.237" transform="translate(-62.295 -200.502)" fill="#e0e0e0"/>
      <path id="Path_1253" data-name="Path 1253" d="M87.55,277.2a8.92,8.92,0,0,1,5.782-5.433,2.137,2.137,0,0,1,1.012-.15.88.88,0,0,1,.748.623c.093.445-.274.844-.62,1.14A19.641,19.641,0,0,1,87.55,277.2" transform="translate(-66.606 -190.398)" fill="#e0e0e0"/>
      <path id="Path_1254" data-name="Path 1254" d="M87.559,265.409a18.556,18.556,0,0,1,.759-4.988,6.369,6.369,0,0,1,3.146-3.8,7.417,7.417,0,0,1-1.4,4.87,22.42,22.42,0,0,0-2.547,4.489" transform="translate(-66.587 -180.752)" fill="#e0e0e0"/>
      <path id="Path_1255" data-name="Path 1255" d="M78.662,267.961c-.656-1.906-.713-4.332-1.867-6-.8-1.161-2.077-1.952-2.765-3.185A4.838,4.838,0,0,0,74.2,262.4a10.516,10.516,0,0,0,2.113,3.028c.848.9,1.571,1.582,2.358,2.537" transform="translate(-57.728 -182.143)" fill="#e0e0e0"/>
      <path id="Path_1256" data-name="Path 1256" d="M87.376,339.569c-.05,0-.093-12.732-.1-28.44s.036-28.44.085-28.44.093,12.729.1,28.44S87.429,339.569,87.376,339.569Z" transform="translate(-66.432 -197.535)" fill="#e0e0e0"/>
      <path id="Path_1257" data-name="Path 1257" d="M98.678,335.28a2.925,2.925,0,0,1-.477.178l-1.318.445c-1.111.378-2.636.926-4.275,1.607a16.278,16.278,0,0,0-4.068,2.038,2.993,2.993,0,0,0-.819,1.069c-.125.3-.146.484-.164.481s0-.046,0-.135a2.034,2.034,0,0,1,.1-.356,2.85,2.85,0,0,1,.769-1.151,6.992,6.992,0,0,1,1.781-1.1c.713-.331,1.489-.673,2.319-1.015,1.66-.68,3.206-1.211,4.325-1.56.559-.175,1.019-.3,1.336-.388a2.566,2.566,0,0,1,.5-.11Z" transform="translate(-66.605 -231.389)" fill="#e0e0e0"/>
      <path id="Path_1258" data-name="Path 1258" d="M103.913,310.13a.906.906,0,0,1-.135.143l-.406.385-1.528,1.386-5.055,4.521c-1.981,1.763-3.694,3.449-4.881,4.717-.595.634-1.069,1.161-1.382,1.528-.15.167-.271.31-.356.42a.78.78,0,0,1-.139.139.687.687,0,0,1,.107-.164c.078-.1.192-.253.356-.442.3-.381.755-.923,1.34-1.568a63.416,63.416,0,0,1,4.856-4.77c1.988-1.76,3.8-3.342,5.112-4.482l1.564-1.34.431-.356A1.1,1.1,0,0,1,103.913,310.13Z" transform="translate(-68.202 -215.199)" fill="#e0e0e0"/>
      <path id="Path_1259" data-name="Path 1259" d="M102.991,325.257c-.053-.021.356-.976.773-2.187s.613-2.23.666-2.219a7.6,7.6,0,0,1-.492,2.28,14.428,14.428,0,0,1-.616,1.528A2.493,2.493,0,0,1,102.991,325.257Z" transform="translate(-76.543 -222.1)" fill="#e0e0e0"/>
      <path id="Path_1260" data-name="Path 1260" d="M74.252,338.058a2.235,2.235,0,0,1-.306-.356l-.784-1c-.656-.851-1.564-2.024-2.583-3.306s-1.956-2.433-2.633-3.267l-.8-.99a2.28,2.28,0,0,1-.274-.378,2.253,2.253,0,0,1,.331.331c.2.221.492.545.844.951.713.812,1.657,1.952,2.675,3.238s1.913,2.472,2.547,3.342c.314.435.566.791.734,1.037A2.217,2.217,0,0,1,74.252,338.058Z" transform="translate(-53.293 -227.192)" fill="#e0e0e0"/>
      <path id="Path_1261" data-name="Path 1261" d="M78.456,339.1a4.478,4.478,0,0,1-1.022-1.917,5.4,5.4,0,0,1-.232-1.927h.082c-.039.146-.064.224-.078.221s0-.082,0-.235h.082a8.86,8.86,0,0,0,.324,1.877A14.631,14.631,0,0,0,78.456,339.1Z" transform="translate(-59.938 -231.364)" fill="#e0e0e0"/>
      <path id="Path_1262" data-name="Path 1262" d="M61.941,333.507a3.316,3.316,0,0,0-.713-.413,4.756,4.756,0,0,0-1.981-.157,12.045,12.045,0,0,0-2,.321,5.39,5.39,0,0,1-.823.2,2.85,2.85,0,0,1,.787-.321,9.284,9.284,0,0,1,2.016-.381,4.332,4.332,0,0,1,2.045.221,1.293,1.293,0,0,1,.663.534Z" transform="translate(-46.573 -229.738)" fill="#e0e0e0"/>
      <path id="Path_1263" data-name="Path 1263" d="M55.8,330.166c0,.029-.417-.167-1.094-.4a10.973,10.973,0,0,0-5.511-.4c-.713.128-1.129.26-1.14.228a1.069,1.069,0,0,1,.289-.125,7.316,7.316,0,0,1,.827-.232,9.841,9.841,0,0,1,2.822-.2,9.737,9.737,0,0,1,2.761.623,6.787,6.787,0,0,1,.78.356A.991.991,0,0,1,55.8,330.166Z" transform="translate(-41.184 -227.355)" fill="#e0e0e0"/>
      <path id="Path_1264" data-name="Path 1264" d="M84.958,310.756a22.8,22.8,0,0,1-.8-2.772,22.388,22.388,0,0,1-.62-2.814,22.8,22.8,0,0,1,.8,2.789,22.387,22.387,0,0,1,.62,2.8Z" transform="translate(-64.025 -212.006)" fill="#e0e0e0"/>
      <path id="Path_1265" data-name="Path 1265" d="M83.714,315.423a13.229,13.229,0,0,0-.883-1.66,7.282,7.282,0,0,0-1.3-1.34,1.213,1.213,0,0,1,.5.257,4.032,4.032,0,0,1,.948.98A3.637,3.637,0,0,1,83.714,315.423Z" transform="translate(-62.731 -216.673)" fill="#e0e0e0"/>
      <path id="Path_1266" data-name="Path 1266" d="M66.474,389.741s-.057-.306-.2-.848a12.139,12.139,0,0,0-.851-2.205,31.027,31.027,0,0,0-4.514-6.359c-1.008-1.154-1.988-2.241-2.818-3.281a22.925,22.925,0,0,1-2.013-2.9,13.81,13.81,0,0,1-1.015-2.138c-.093-.264-.164-.47-.2-.616a.837.837,0,0,1-.053-.221s.11.292.321.812A15.228,15.228,0,0,0,56.2,374.1a24.728,24.728,0,0,0,2.031,2.85c.834,1.03,1.813,2.109,2.825,3.263a29.067,29.067,0,0,1,4.492,6.413,11.246,11.246,0,0,1,.805,2.244c.057.278.1.492.11.638A.994.994,0,0,1,66.474,389.741Z" transform="translate(-45.53 -254.494)" fill="#e0e0e0"/>
      <path id="Path_1267" data-name="Path 1267" d="M97.626,391.418a5.048,5.048,0,0,1-.527.3,11.588,11.588,0,0,0-1.368.9,15.538,15.538,0,0,0-1.781,1.639c-.631.666-1.279,1.425-1.942,2.266-1.325,1.664-2.565,3.131-3.306,4.307a15,15,0,0,0-.83,1.425,4.759,4.759,0,0,1-.292.531.815.815,0,0,1,.05-.15c.039-.1.093-.239.178-.413a13.316,13.316,0,0,1,.784-1.457,46.4,46.4,0,0,1,3.27-4.35c.666-.83,1.322-1.607,1.963-2.269a14.828,14.828,0,0,1,1.842-1.625,9.222,9.222,0,0,1,1.425-.862c.175-.089.317-.143.41-.182S97.623,391.411,97.626,391.418Z" transform="translate(-66.625 -267.527)" fill="#e0e0e0"/>
      <path id="Path_1268" data-name="Path 1268" d="M103.768,401.737a7.837,7.837,0,0,1-1.112.16,14.713,14.713,0,0,0-2.643.52,7.9,7.9,0,0,0-2.366,1.243c-.545.42-.8.77-.827.748s.043-.1.164-.257a4.33,4.33,0,0,1,.581-.595,7.22,7.22,0,0,1,2.39-1.315,12.008,12.008,0,0,1,2.686-.474,6.053,6.053,0,0,1,1.126-.032Z" transform="translate(-72.571 -274.163)" fill="#e0e0e0"/>
      <path id="Path_1269" data-name="Path 1269" d="M97.732,401.306c-.057-.036.445-.8.834-1.831s.452-1.956.517-1.945a1.781,1.781,0,0,1,0,.6,6.637,6.637,0,0,1-.324,1.425,6.994,6.994,0,0,1-.648,1.293A1.873,1.873,0,0,1,97.732,401.306Z" transform="translate(-73.158 -271.463)" fill="#e0e0e0"/>
      <path id="Path_1270" data-name="Path 1270" d="M100.882,363.65a.762.762,0,0,1-.178.093l-.524.239c-.228.1-.506.224-.819.388s-.684.331-1.069.559l-.609.356c-.21.121-.417.267-.638.4-.449.274-.9.609-1.379.951a23.6,23.6,0,0,0-5.294,5.472c-.324.488-.645.951-.9,1.425-.132.224-.267.438-.381.652l-.324.62c-.217.392-.356.762-.524,1.069a6.385,6.385,0,0,0-.356.834c-.089.232-.16.392-.221.531a.911.911,0,0,1-.085.182.68.68,0,0,1,.053-.192c.05-.143.11-.324.185-.545s.189-.524.335-.848.289-.713.5-1.1c.1-.2.207-.41.317-.627s.246-.435.356-.666c.253-.463.57-.93.894-1.425a24.37,24.37,0,0,1,2.433-2.989,24.875,24.875,0,0,1,2.9-2.536c.485-.338.94-.67,1.4-.941.224-.135.435-.278.648-.4l.62-.338c.388-.224.759-.385,1.069-.538a9.069,9.069,0,0,1,.837-.356l.538-.207A.755.755,0,0,1,100.882,363.65Z" transform="translate(-66.625 -249.653)" fill="#e0e0e0"/>
      <path id="Path_1271" data-name="Path 1271" d="M102.58,376.219a1.307,1.307,0,0,1,.438-.652,2.747,2.747,0,0,1,1.781-.677,4.8,4.8,0,0,1,1.856.356,2.739,2.739,0,0,1,.713.356,4.312,4.312,0,0,1-.745-.217,5.648,5.648,0,0,0-1.806-.3,2.889,2.889,0,0,0-1.685.591,5.962,5.962,0,0,0-.552.545Z" transform="translate(-76.282 -256.888)" fill="#e0e0e0"/>
      <path id="Path_1272" data-name="Path 1272" d="M99.24,376.041a6.645,6.645,0,0,0,.5-1.628,6.509,6.509,0,0,0-.114-1.7,1.108,1.108,0,0,1,.21.477,3.356,3.356,0,0,1,.086,1.247,3.4,3.4,0,0,1-.356,1.193C99.4,375.909,99.258,376.055,99.24,376.041Z" transform="translate(-74.131 -255.485)" fill="#e0e0e0"/>
      <path id="Path_1273" data-name="Path 1273" d="M62.87,428.42a42.093,42.093,0,0,0,4,14.82h9.808a42.916,42.916,0,0,0,3.758-14.82Z" transform="translate(-50.718 -291.348)" fill="#e0e0e0"/>
      <path id="Path_1274" data-name="Path 1274" d="M81.638,450.359c0,.053-3.231.093-7.214.093s-7.214-.039-7.214-.093,3.231-.089,7.214-.089S81.638,450.309,81.638,450.359Z" transform="translate(-53.512 -305.414)" fill="#fafafa"/>
      <path id="Path_1275" data-name="Path 1275" d="M82.628,455.3c0,.053-3.028.093-6.769.093s-6.769-.039-6.769-.093,3.028-.093,6.769-.093S82.628,455.253,82.628,455.3Z" transform="translate(-54.722 -308.594)" fill="#fafafa"/>
      <path id="Path_1276" data-name="Path 1276" d="M74.363,437.39a27.585,27.585,0,0,1,0,4.517,27.583,27.583,0,0,1,0-4.517Z" transform="translate(-58.057 -297.123)" fill="#fafafa"/>
      <path id="Path_1277" data-name="Path 1277" d="M89.113,437.39a29.567,29.567,0,0,1,0,4.678,29.57,29.57,0,0,1,0-4.678Z" transform="translate(-67.552 -297.123)" fill="#fafafa"/>
      <path id="Path_1278" data-name="Path 1278" d="M102.963,437.28a30.754,30.754,0,0,1,0,4.77A30.756,30.756,0,0,1,102.963,437.28Z" transform="translate(-76.468 -297.052)" fill="#fafafa"/>
      <path id="Path_1279" data-name="Path 1279" d="M80.722,437.223c0,.05-3.791.093-8.461.093s-8.461-.043-8.461-.093,3.787-.093,8.461-.093S80.722,437.173,80.722,437.223Z" transform="translate(-51.317 -296.955)" fill="#fafafa"/>
    </g>
    <g id="freepik--Plant--inject-29" transform="translate(138.109 121.799)">
      <rect id="Rectangle_1632" data-name="Rectangle 1632" width="23.937" height="3.288" transform="translate(11.046 44.81)" fill="#263238"/>
      <path id="Path_1280" data-name="Path 1280" d="M390.611,418.124H366.6V414.75h24.011Zm-23.929-.078h23.851v-3.206H366.682Z" transform="translate(-355.593 -369.983)" fill="#263238"/>
      <path id="Path_1281" data-name="Path 1281" d="M372.94,421.03l3.445,17h12.747l3.331-15.9Z" transform="translate(-359.674 -374.026)" fill="#263238"/>
      <path id="Path_1282" data-name="Path 1282" d="M372.94,464.23l1.838,2.526h15.493l2.191-2.526Z" transform="translate(-359.674 -401.836)" fill="#455a64"/>
      <path id="Path_1283" data-name="Path 1283" d="M397.514,358.863c-.046,0-.107-7.873-.135-17.585s0-17.588.036-17.588.107,7.873.135,17.588S397.561,358.863,397.514,358.863Z" transform="translate(-375.399 -311.363)" fill="#263238"/>
      <path id="Path_1284" data-name="Path 1284" d="M408.776,367.109a1.047,1.047,0,0,1-.064.182l-.214.509-.157.356-.16.449c-.057.16-.118.331-.185.513s-.114.378-.175.584a23.339,23.339,0,0,0-.67,2.928,35.3,35.3,0,0,0-.356,3.666,49.4,49.4,0,0,0,.189,6.694c.075.855.153,1.546.21,2.024.025.224.046.406.061.549a1.3,1.3,0,0,1,0,.192.649.649,0,0,1-.043-.185c-.025-.146-.057-.324-.093-.549-.078-.474-.175-1.161-.267-2.016a44.055,44.055,0,0,1-.239-6.715,33.565,33.565,0,0,1,.385-3.684,22.187,22.187,0,0,1,.713-2.939c.068-.207.121-.4.192-.584s.135-.356.2-.513l.175-.442c.057-.135.118-.256.171-.356.1-.2.178-.356.242-.5S408.769,367.106,408.776,367.109Z" transform="translate(-381.328 -339.314)" fill="#263238"/>
      <path id="Path_1285" data-name="Path 1285" d="M405.373,349.23a1.459,1.459,0,0,1-.075.26c-.064.182-.146.428-.249.734l-.185.527c-.057.2-.121.406-.192.634-.139.456-.3.973-.445,1.557-.078.292-.157.595-.242.908s-.146.652-.221,1c-.167.684-.289,1.425-.445,2.209-.264,1.564-.5,3.292-.655,5.116s-.217,3.563-.239,5.155,0,3.017.078,4.214c.021.6.061,1.144.093,1.617s.057.887.085,1.222.046.577.061.77a1.428,1.428,0,0,1,0,.271s-.018-.093-.043-.267-.053-.445-.089-.769-.082-.741-.118-1.218-.086-1.015-.114-1.617c-.082-1.2-.114-2.633-.118-4.222s.075-3.338.224-5.169.4-3.563.673-5.13c.16-.78.285-1.525.46-2.212.082-.356.16-.677.235-.994s.171-.62.249-.912c.153-.581.324-1.1.474-1.553.071-.224.142-.438.207-.634l.2-.524c.118-.3.21-.542.281-.712A1.558,1.558,0,0,1,405.373,349.23Z" transform="translate(-378.549 -327.804)" fill="#263238"/>
      <path id="Path_1286" data-name="Path 1286" d="M385.311,362.18a.392.392,0,0,1,0-.093,1.334,1.334,0,0,0-.021-.271c-.018-.249-.039-.6-.071-1.04-.057-.919-.139-2.227-.239-3.837-.207-3.238-.509-7.713-1.069-12.629-.278-2.462-.6-4.8-.937-6.915-.178-1.069-.356-2.063-.524-3s-.356-1.806-.517-2.6-.331-1.507-.474-2.138-.271-1.168-.385-1.607-.189-.77-.249-1.015c-.025-.107-.043-.2-.061-.264a.454.454,0,0,1,0-.093.32.32,0,0,1,.032.089l.078.26.278,1c.121.438.267.976.413,1.6s.335,1.34.5,2.138.356,1.66.538,2.6.356,1.942.542,3c.356,2.12.673,4.457.951,6.918.545,4.927.826,9.4,1,12.643.085,1.621.15,2.932.185,3.84,0,.442.029.791.039,1.044v.271A.358.358,0,0,1,385.311,362.18Z" transform="translate(-364.71 -313.288)" fill="#263238"/>
      <path id="Path_1287" data-name="Path 1287" d="M383.628,330.76a2.371,2.371,0,0,0-2.351-1.97,3.709,3.709,0,0,0-2.85,1.546,8.963,8.963,0,0,0-1.372,3.046,20.716,20.716,0,0,0-.844,8.1,12.251,12.251,0,0,0,3.374,7.307,1.36,1.36,0,0,0,1.161.531,1.382,1.382,0,0,0,.613-.378,18.137,18.137,0,0,0,5.885-13.79,5.564,5.564,0,0,0-.737-2.968c-.574-.859-1.9-1.781-2.879-1.425" transform="translate(-361.709 -314.646)" fill="#707070"/>
      <path id="Path_1288" data-name="Path 1288" d="M362.729,301.837l-1.578,2.85c-.036.064-.086.139-.16.146s-.146-.071-.192-.139l-4.168-6.413.958-.542Z" transform="translate(-349.175 -294.658)" fill="#707070"/>
      <g id="Group_184" data-name="Group 184" transform="translate(7.455 3.082)" opacity="0.2">
        <path id="Path_1289" data-name="Path 1289" d="M362.729,301.837l-1.578,2.85c-.036.064-.086.139-.16.146s-.146-.071-.192-.139l-4.168-6.413.958-.542Z" transform="translate(-356.63 -297.74)"/>
      </g>
      <path id="Path_1290" data-name="Path 1290" d="M371.123,301.415l-14.229-8.4a.648.648,0,0,1-.356-.356c-.057-.21.1-.413.253-.57a9.807,9.807,0,0,1,7.6-2.989,8.693,8.693,0,0,1,6.876,4.275,7.822,7.822,0,0,1-.157,8.03" transform="translate(-349.108 -289.088)" fill="#707070"/>
      <path id="Path_1291" data-name="Path 1291" d="M363.32,292.508a.638.638,0,0,1,.185-.025c.121,0,.3-.029.538-.025a10.64,10.64,0,0,1,1.974.157,11.576,11.576,0,0,1,9.223,8.336,10.9,10.9,0,0,1,.356,1.949c.025.235,0,.292.021.417a.776.776,0,0,1-.11.31,2.368,2.368,0,0,0,.021-.712,11.681,11.681,0,0,0-9.519-10.171,12.57,12.57,0,0,0-1.952-.21C363.562,292.515,363.32,292.522,363.32,292.508Z" transform="translate(-353.481 -291.257)" fill="#263238"/>
      <path id="Path_1292" data-name="Path 1292" d="M382.882,307.42a3.457,3.457,0,0,1-.713.328c-.456.178-1.087.406-1.781.631s-1.361.406-1.831.52a3.466,3.466,0,0,1-.777.15,3.478,3.478,0,0,1,.741-.264l1.813-.566,1.8-.591A3.917,3.917,0,0,1,382.882,307.42Z" transform="translate(-362.79 -300.889)" fill="#263238"/>
      <path id="Path_1293" data-name="Path 1293" d="M385.747,290.53a5.982,5.982,0,0,1,.167,1.585,6.085,6.085,0,0,1-.089,1.6,10.134,10.134,0,0,1-.082-1.592,9.565,9.565,0,0,1,0-1.589Z" transform="translate(-367.896 -290.016)" fill="#263238"/>
      <path id="Path_1294" data-name="Path 1294" d="M357.21,296.529a6.531,6.531,0,0,1,1.033-.356c.648-.2,1.546-.452,2.551-.695s1.92-.424,2.586-.542a5.965,5.965,0,0,1,1.087-.146,8.126,8.126,0,0,1-1.069.264c-.659.146-1.571.356-2.572.591s-1.909.467-2.551.645A7.4,7.4,0,0,1,357.21,296.529Z" transform="translate(-349.548 -292.759)" fill="#263238"/>
      <path id="Path_1295" data-name="Path 1295" d="M351.715,325.607a5.819,5.819,0,0,0-4.051-1.047,12.373,12.373,0,0,0-4.435,1.144,13.663,13.663,0,0,0-6.088,4.792,8,8,0,0,0-.862,7.481,1.044,1.044,0,0,0,.488.588,1.14,1.14,0,0,0,.8-.061,44.5,44.5,0,0,0,7.987-3.181,15.136,15.136,0,0,0,6.142-5.867,5.1,5.1,0,0,0,.645-1.949,2.408,2.408,0,0,0-.627-1.9" transform="translate(-335.702 -311.915)" fill="#707070"/>
      <path id="Path_1296" data-name="Path 1296" d="M353.425,326.71a.712.712,0,0,1-.2.082l-.57.2-.417.139c-.15.053-.31.121-.481.189-.356.139-.748.278-1.168.484l-.67.3c-.232.107-.463.239-.712.356-.5.246-1,.556-1.528.869a24.2,24.2,0,0,0-6.017,5.322c-.381.488-.752.944-1.069,1.4-.153.228-.313.442-.449.659l-.388.623c-.257.392-.445.773-.631,1.1-.089.164-.175.314-.246.456s-.132.274-.192.392c-.107.224-.2.4-.267.542a.9.9,0,0,1-.1.185,1.115,1.115,0,0,1,.071-.2l.242-.559.175-.4c.068-.146.153-.3.239-.463.175-.331.356-.712.609-1.115l.381-.634c.132-.221.292-.438.445-.666.3-.467.67-.93,1.047-1.425a23.491,23.491,0,0,1,6.056-5.344c.538-.31,1.044-.62,1.543-.859.249-.125.484-.253.713-.356l.677-.3c.427-.2.834-.331,1.183-.463.178-.064.338-.128.492-.178l.42-.125.581-.164a1.157,1.157,0,0,1,.232-.057Z" transform="translate(-337.388 -313.307)" fill="#263238"/>
      <path id="Path_1297" data-name="Path 1297" d="M343.033,341.25a29.381,29.381,0,0,1-2.975.958,28.306,28.306,0,0,1-3.028.794,30.05,30.05,0,0,1,2.978-.958A28.38,28.38,0,0,1,343.033,341.25Z" transform="translate(-336.557 -322.667)" fill="#263238"/>
      <path id="Path_1298" data-name="Path 1298" d="M353.4,348.251a4.571,4.571,0,0,1-.064-.93c-.018-.574-.021-1.364,0-2.241s.071-1.667.121-2.237a4.443,4.443,0,0,1,.118-.923,5.81,5.81,0,0,1,0,.93c-.018.627-.043,1.393-.068,2.237s-.039,1.607-.057,2.234a5.241,5.241,0,0,1-.05.93Z" transform="translate(-347.043 -323.099)" fill="#263238"/>
      <path id="Path_1299" data-name="Path 1299" d="M368.414,338.617c-.05,0-.2-1.607-.335-3.6s-.21-3.605-.164-3.609.2,1.607.335,3.6S368.46,338.613,368.414,338.617Z" transform="translate(-356.431 -316.333)" fill="#263238"/>
      <path id="Path_1300" data-name="Path 1300" d="M349.67,330.931a5.245,5.245,0,0,1,.955-.029c.588,0,1.4.021,2.3.05s1.71.068,2.294.1a5.443,5.443,0,0,1,.951.089,4.8,4.8,0,0,1-.951.028c-.588,0-1.4-.021-2.3-.05s-1.71-.064-2.294-.1A5.2,5.2,0,0,1,349.67,330.931Z" transform="translate(-344.694 -316)" fill="#263238"/>
      <path id="Path_1301" data-name="Path 1301" d="M387.475,352.853a.88.88,0,0,1-.021-.189,4.658,4.658,0,0,0-.025-.549c-.021-.474-.025-1.165,0-2.016s.075-1.863.175-2.985.274-2.348.5-3.627.52-2.494.809-3.562.6-2.056.891-2.85.527-1.45.713-1.888l.217-.506a.831.831,0,0,1,.086-.171.851.851,0,0,1-.053.185c-.05.132-.11.3-.185.513-.171.445-.4,1.1-.666,1.9s-.563,1.781-.851,2.85-.559,2.291-.794,3.563-.392,2.494-.513,3.616-.178,2.138-.21,2.971-.046,1.535-.046,2.013v.545A.713.713,0,0,1,387.475,352.853Z" transform="translate(-368.99 -318.328)" fill="#263238"/>
      <path id="Path_1302" data-name="Path 1302" d="M381.9,359.84a4.088,4.088,0,0,1-.57.623c-.356.356-.891.859-1.486,1.382s-1.154.976-1.568,1.293a3.819,3.819,0,0,1-.691.481,4.454,4.454,0,0,1,.616-.574l1.528-1.329,1.518-1.343A4.324,4.324,0,0,1,381.9,359.84Z" transform="translate(-362.668 -334.635)" fill="#263238"/>
      <path id="Path_1303" data-name="Path 1303" d="M395.091,359.558a6.5,6.5,0,0,1-.606-.837l-1.4-2.052c-.545-.773-1.04-1.468-1.425-2.031a7.023,7.023,0,0,1-.577-.859,5.87,5.87,0,0,1,.673.784c.4.5.923,1.208,1.478,2.009s1.033,1.539,1.368,2.084a5.824,5.824,0,0,1,.492.9Z" transform="translate(-371.352 -330.733)" fill="#263238"/>
      <path id="Path_1304" data-name="Path 1304" d="M383.475,338c.025.039-1.471,1.047-3.342,2.252s-3.409,2.137-3.434,2.105,1.471-1.047,3.342-2.252S383.45,337.955,383.475,338Z" transform="translate(-362.094 -320.573)" fill="#263238"/>
      <path id="Path_1305" data-name="Path 1305" d="M399.61,342.993a54.527,54.527,0,0,1-4.4-4.3,27.8,27.8,0,0,1,2.262,2.091,28.551,28.551,0,0,1,2.138,2.212Z" transform="translate(-374.01 -321.019)" fill="#263238"/>
      <path id="Path_1306" data-name="Path 1306" d="M410.54,333.53l1.283-.107a6.359,6.359,0,0,0,2.6-.794,10.054,10.054,0,0,1,1.208-.606,15.548,15.548,0,0,1,5.069-.609,21.062,21.062,0,0,0,8.062-2.063.791.791,0,0,0,.356-.321c.264-.481-.228-.908-.648-1.169a26.5,26.5,0,0,0-6.822-3.345,8.935,8.935,0,0,0-7.332.891c-2.458,1.692-3.352,5.166-3.769,8.123" transform="translate(-383.879 -311.645)" fill="#707070"/>
      <path id="Path_1307" data-name="Path 1307" d="M429.2,331.094a1.27,1.27,0,0,1-.217-.1l-.609-.321c-.527-.278-1.29-.688-2.248-1.147a21.271,21.271,0,0,0-3.481-1.343,11.5,11.5,0,0,0-4.514-.356,7.7,7.7,0,0,0-4.111,1.763,9.2,9.2,0,0,0-2.138,3.01,25.159,25.159,0,0,0-.933,2.341c-.093.271-.171.484-.228.648a1.475,1.475,0,0,1-.089.221,1.139,1.139,0,0,1,.057-.232c.05-.167.118-.385.2-.659a21.062,21.062,0,0,1,.883-2.373,9.138,9.138,0,0,1,2.138-3.074,7.809,7.809,0,0,1,4.193-1.817,11.443,11.443,0,0,1,4.574.385,20.4,20.4,0,0,1,3.495,1.382c.955.477,1.706.9,2.227,1.2l.595.356A1.575,1.575,0,0,1,429.2,331.094Z" transform="translate(-383.937 -313.865)" fill="#263238"/>
      <path id="Path_1308" data-name="Path 1308" d="M440.7,333.073c-.025.039-1.706-1.047-3.751-2.426s-3.684-2.529-3.659-2.569,1.706,1.047,3.755,2.426S440.724,333.037,440.7,333.073Z" transform="translate(-398.524 -314.187)" fill="#263238"/>
      <path id="Path_1309" data-name="Path 1309" d="M444.6,327.829a4.039,4.039,0,0,1-1.222.221,4.086,4.086,0,0,1-1.247-.018,8.394,8.394,0,0,1,1.233-.125,8.518,8.518,0,0,1,1.236-.078Z" transform="translate(-404.215 -314.028)" fill="#263238"/>
      <path id="Path_1310" data-name="Path 1310" d="M426.135,325.14a3.3,3.3,0,0,1-.552.862,3.537,3.537,0,0,1-.712.791,3.316,3.316,0,0,1,.552-.859,3.713,3.713,0,0,1,.713-.794Z" transform="translate(-393.104 -312.297)" fill="#263238"/>
      <path id="Path_1311" data-name="Path 1311" d="M423.383,338.352a4.6,4.6,0,0,1-.809-.438c-.485-.3-1.14-.712-1.842-1.236s-1.318-.99-1.76-1.34a4.963,4.963,0,0,1-.713-.6,4.436,4.436,0,0,1,.77.5l1.781,1.3c.712.506,1.34.951,1.806,1.272a5.1,5.1,0,0,1,.766.538Z" transform="translate(-388.849 -318.477)" fill="#263238"/>
      <path id="Path_1312" data-name="Path 1312" d="M410.411,364.789a2.714,2.714,0,0,0-2.939,2.109,5.944,5.944,0,0,0,.759,3.655,18.653,18.653,0,0,0,5.084,6.63,12.544,12.544,0,0,0,7.748,2.85c-.52-2.4.135-4.92-.153-7.364a9.572,9.572,0,0,0-8.482-8.4c-.784-.085-1.689-.207-2,.517" transform="translate(-381.859 -337.446)" fill="#707070"/>
      <path id="Path_1313" data-name="Path 1313" d="M426.484,381.1a.6.6,0,0,1-.175-.082,3.244,3.244,0,0,1-.46-.306,4.788,4.788,0,0,1-1.211-1.617c-.192-.381-.413-.791-.627-1.247l-.659-1.457a13.537,13.537,0,0,0-.809-1.557,11.82,11.82,0,0,0-1.115-1.518c-.837-.983-1.738-1.838-2.519-2.651a17.458,17.458,0,0,1-1.92-2.3,8.358,8.358,0,0,1-.937-1.781,4.869,4.869,0,0,1-.164-.527.676.676,0,0,1-.039-.185s.086.249.264.688a9.228,9.228,0,0,0,.976,1.749,18.317,18.317,0,0,0,1.934,2.262c.784.805,1.689,1.657,2.536,2.651a12.465,12.465,0,0,1,1.126,1.539,13.607,13.607,0,0,1,.812,1.582c.224.513.442,1,.641,1.461s.42.869.606,1.25a4.988,4.988,0,0,0,1.133,1.614A6.168,6.168,0,0,0,426.484,381.1Z" transform="translate(-387.297 -338.516)" fill="#263238"/>
      <path id="Path_1314" data-name="Path 1314" d="M427.91,393.157a3.829,3.829,0,0,1,.114-.827c.1-.5.253-1.2.463-1.949s.442-1.425.623-1.91a3.7,3.7,0,0,1,.335-.762,4.492,4.492,0,0,1-.221.8c-.153.488-.356,1.165-.57,1.917s-.388,1.425-.513,1.931a4.579,4.579,0,0,1-.232.8Z" transform="translate(-395.061 -352.576)" fill="#263238"/>
      <path id="Path_1315" data-name="Path 1315" d="M434.372,384.048a5.017,5.017,0,0,1-.862-.2c-.527-.139-1.258-.328-2.066-.509s-1.553-.324-2.088-.428a5.315,5.315,0,0,1-.866-.189,3.938,3.938,0,0,1,.884.071c.545.071,1.29.2,2.105.378s1.543.392,2.066.559A4.076,4.076,0,0,1,434.372,384.048Z" transform="translate(-395.434 -349.366)" fill="#263238"/>
      <path id="Path_1316" data-name="Path 1316" d="M415.15,379.795a5.131,5.131,0,0,1,.132-.955c.11-.584.281-1.389.509-2.266s.474-1.664.666-2.227a4.835,4.835,0,0,1,.356-.9,5.887,5.887,0,0,1-.235.933c-.164.57-.388,1.357-.616,2.234s-.417,1.671-.556,2.248a5.582,5.582,0,0,1-.256.93Z" transform="translate(-386.847 -343.396)" fill="#263238"/>
      <path id="Path_1317" data-name="Path 1317" d="M424.822,370.7c0,.046-1.532-.078-3.413-.278s-3.409-.4-3.409-.435,1.532.078,3.416.278S424.829,370.654,424.822,370.7Z" transform="translate(-388.681 -341.163)" fill="#263238"/>
      <path id="Path_1318" data-name="Path 1318" d="M390.6,423.906c0,.046-5.376.085-12.006.085s-12.009-.039-12.009-.085,5.376-.086,12.009-.086S390.6,423.859,390.6,423.906Z" transform="translate(-355.586 -375.822)" fill="#455a64"/>
      <path id="Path_1319" data-name="Path 1319" d="M394.271,443.326c0,.046-3.623.085-8.09.085s-8.09-.039-8.09-.085,3.623-.085,8.09-.085S394.271,443.279,394.271,443.326Z" transform="translate(-362.989 -388.323)" fill="#455a64"/>
      <path id="Path_1320" data-name="Path 1320" d="M394.386,446.106c0,.046-3.562.085-7.948.085s-7.948-.039-7.948-.085,3.563-.086,7.948-.086S394.386,446.059,394.386,446.106Z" transform="translate(-363.247 -390.113)" fill="#455a64"/>
      <path id="Path_1321" data-name="Path 1321" d="M393.667,441.036c0,.05-3.748.086-8.368.086s-8.368-.036-8.368-.086,3.744-.086,8.368-.086S393.667,440.989,393.667,441.036Z" transform="translate(-362.243 -386.849)" fill="#455a64"/>
    </g>
    <g id="freepik--Labyrinth--inject-29" transform="translate(70.304 29.22)">
      <path id="Path_1322" data-name="Path 1322" d="M227.938,98.908c-1.094-5.29-6.484-22.483-29.729-21.5-11.546.485-17.923,5.949-21.243,10.449a26.006,26.006,0,0,0-4.492,9.761l-.025.146H159.57v-.178a51.79,51.79,0,0,1,.563-7.891l.356.071a50.6,50.6,0,0,0-.556,7.642H172.16a26.74,26.74,0,0,1,4.517-9.751C180.03,83.087,186.5,77.54,198.2,77.048c9.53-.4,17.157,2.2,22.658,7.734a28.322,28.322,0,0,1,7.431,14.054Z" transform="translate(-154.512 -59.984)" fill="#707070"/>
      <path id="Path_1323" data-name="Path 1323" d="M197.428,187.626H178.151v-54.9l.21.039c18.208,3.206,26.11-4.859,29.213-9.954a21.59,21.59,0,0,0,1.71-19.419c-1.607-3.791-6.612-12.579-18.8-12.373-5.964.1-13.976,1.984-18.3,10.36a24.809,24.809,0,0,0-2.622,10.125v.178H145.383v-.175c-.021-2.038,0-8.949,0-9.017v-.2l2.982.313v4.446l17.456-.025A28.924,28.924,0,0,1,170.1,96.8c3.146-4.667,9.184-10.2,20.032-10.2h.356c7.944.086,14.5,2.879,18.96,8.08a23.942,23.942,0,0,1,5.565,17.855c0,.093-.456,11.258-8.846,18.693-5.853,5.191-14.093,7.374-24.5,6.491v17.068h3.591V141.153l.192.018a38.027,38.027,0,0,0,9.7-.734c4.895-1,11.649-3.473,16.031-9.54,7.855-10.908,7.941-17.075,8-21.578v-1.069l-.039-.9h5.344v.16c0,.114.855,11.236-8.415,23.716-5.768,7.763-12.526,12.765-19.027,14.076l-.068-.356c6.413-1.293,13.092-6.245,18.81-13.94,8.575-11.543,8.418-21.9,8.354-23.306h-4.631l.021.538v1.069c-.064,4.549-.15,10.784-8.066,21.781-4.439,6.163-11.286,8.668-16.249,9.686a38.831,38.831,0,0,1-9.619.748v13.619h-4.289V137.33l.192.018c10.388.916,18.607-1.233,24.421-6.384,8.276-7.332,8.728-18.347,8.732-18.457a23.6,23.6,0,0,0-5.479-17.6c-4.393-5.116-10.859-7.866-18.7-7.952-10.923-.118-16.954,5.394-20.1,10.036a28.34,28.34,0,0,0-4.275,10.242l-.025.15-18.1.025V102.92l-2.269-.239v8.639H169.2a25.34,25.34,0,0,1,2.651-10.1c2.447-4.713,7.649-10.374,18.632-10.559h.435c12.073,0,17.079,8.785,18.678,12.6A21.9,21.9,0,0,1,207.862,123c-2.643,4.357-8.746,10.855-21.614,10.859a45.433,45.433,0,0,1-7.741-.712V187.27h18.921Z" transform="translate(-145.373 -66.158)" fill="#707070"/>
      <path id="Path_1324" data-name="Path 1324" d="M203.945,150.509h-.356V118.447l.132-.036a49.594,49.594,0,0,0,16.708-8.928c7.613-6.17,16.687-17.51,16.687-36.523,0-14.938-6.056-26.933-17.456-34.7a52.7,52.7,0,0,0-27.624-8.689c-10.1,0-34.453,2.572-42.465,26.38a48.415,48.415,0,0,0-1.464,6.633l-.356-.05a48.8,48.8,0,0,1,1.468-6.676c8.087-24.043,32.629-26.64,42.8-26.64a53.129,53.129,0,0,1,27.827,8.75c11.528,7.838,17.624,19.95,17.624,34.995,0,19.156-9.152,30.588-16.829,36.8a50.345,50.345,0,0,1-16.7,8.949Z" transform="translate(-146.903 -29.22)" fill="#707070"/>
      <path id="Path_1325" data-name="Path 1325" d="M210.841,136.4h-.356l.025-14.332.15-.025a31.945,31.945,0,0,0,9.227-3.449,43.1,43.1,0,0,0,16.833-16.744c7.481-13.071,6.117-23.131,6.1-23.231-.884-12.9-5.96-22.946-15.084-29.868-9.53-7.232-20.513-8.767-26.209-9.042a50.879,50.879,0,0,0-19.387,3.352c-9.736,3.819-16.2,10.289-19.206,19.238l-.356-.114c3.042-9.045,9.576-15.586,19.412-19.444a51.089,51.089,0,0,1,19.537-3.377c5.736.274,16.8,1.828,26.409,9.116,9.209,6.986,14.328,17.118,15.219,30.11,0,.089,1.393,10.264-6.149,23.445a43.413,43.413,0,0,1-16.983,16.9,33.377,33.377,0,0,1-9.177,3.456Z" transform="translate(-156.45 -35.73)" fill="#707070"/>
      <path id="Path_1326" data-name="Path 1326" d="M272.136,340.432h-14.3v-.356h13.94L271.8,329h.356Z" transform="translate(-217.774 -222.203)" fill="#707070"/>
      <path id="Path_1327" data-name="Path 1327" d="M250.92,315.59h-3.83V290.41H251.1v22.013h-.356V290.766h-3.3v24.467h3.473Z" transform="translate(-210.853 -197.361)" fill="#707070"/>
      <path id="Path_1328" data-name="Path 1328" d="M176.868,85.835H170.48v-.185a20.686,20.686,0,0,1,5.255-13.609,17.773,17.773,0,0,1,4.724-3.755l-3.381-2.928.232-.267,3.808,3.281-.253.114c-.093.046-9.537,4.517-10.007,16.993h5.864c.281-1.247,2.533-10.249,8.65-12.618l-1.995-2.1c-.745.228-5.732,2.07-8.5,11.261l-.356-.1c3.064-10.089,8.639-11.464,8.874-11.514l.1-.021,2.519,2.633-.26.093c-6.537,2.284-8.675,12.483-8.71,12.586l-.028.143Z" transform="translate(-161.536 -52.311)" fill="#707070"/>
      <path id="Path_1329" data-name="Path 1329" d="M204.188,60.906l-7.948-7.389.242-.264,7.7,7.164a15.953,15.953,0,0,1,3.288-2.138,27.688,27.688,0,0,1,10.5-2.722c9.619-.677,16.462,1.14,19.5,2.939l2.64-4.421c-2.038-.894-20.866-8.717-36.245.189l-.178-.31c16.363-9.473,36.551-.217,36.754-.121l.178.082-3.028,5.091-.153-.1c-2.911-1.8-9.747-3.662-19.444-2.978-9.234.638-13.648,4.813-13.687,4.856Z" transform="translate(-178.119 -42.399)" fill="#707070"/>
      <path id="Path_1330" data-name="Path 1330" d="M287.476,165.011h-.356l.542-30.356h.175c10.217-.075,24.492-14.67,28.578-26.12,5.7-15.978,1.069-27.168-3.826-33.741a38.642,38.642,0,0,0-11.974-10.488l-2.594,4.706c1.749.741,14.995,6.836,15.105,21.14l5.622.043v.356l-5.974-.046v-.178c0-15.116-14.916-21-15.066-21.062l-.192-.071,2.957-5.344.143.053a38.646,38.646,0,0,1,12.244,10.652c4.948,6.644,9.64,17.952,3.883,34.086a46.263,46.263,0,0,1-13.092,18.422c-5.572,4.87-11.4,7.82-15.643,7.93Z" transform="translate(-236.623 -51.513)" fill="#707070"/>
      <path id="Path_1331" data-name="Path 1331" d="M270.943,287.549H266.08l0-.182.566-31.35-.014-2.088h4.389V283.6h-.356V254.286h-3.677l.014,1.735-.563,31.172h4.5Z" transform="translate(-223.078 -173.877)" fill="#707070"/>
      <path id="Path_1332" data-name="Path 1332" d="M361.457,235.123c-.3-.356-2.262-2.348-2.75-2.85h0l-.05-.053-.053-.05h0a.142.142,0,0,1-.046-.175l.135-.125c.039,0,.064,0,.15.061h0l.1.1h0c.185.171.524.517,1.2,1.2.9.912,1.425,1.468,1.582,1.657Z" transform="translate(-282.602 -159.676)" fill="#707070"/>
      <rect id="Rectangle_1633" data-name="Rectangle 1633" width="3.538" height="0.356" transform="translate(65.358 8.803) rotate(-51.74)" fill="#707070"/>
      <path id="Path_1333" data-name="Path 1333" d="M330.3,151.842h-.8v-.356c.566.021,1.3,0,2.006,0s1.45-.018,2.023,0v.356c-.566-.018-1.3,0-2.009,0Z" transform="translate(-263.905 -107.923)" fill="#707070"/>
      <rect id="Rectangle_1634" data-name="Rectangle 1634" width="0.356" height="4.076" transform="translate(10.872 41.108)" fill="#707070"/>
      <rect id="Rectangle_1635" data-name="Rectangle 1635" width="0.356" height="3.506" transform="translate(43.861 20.894)" fill="#707070"/>
      <rect id="Rectangle_1636" data-name="Rectangle 1636" width="0.356" height="4.457" transform="matrix(0.401, -0.916, 0.916, 0.401, 76.053, 64.938)" fill="#707070"/>
      <rect id="Rectangle_1637" data-name="Rectangle 1637" width="0.356" height="4.282" transform="translate(59.052 71.039) rotate(-37.38)" fill="#707070"/>
      <rect id="Rectangle_1638" data-name="Rectangle 1638" width="4.339" height="0.356" transform="matrix(0.963, -0.268, 0.268, 0.963, 84.446, 31.472)" fill="#707070"/>
      <path id="Path_1334" data-name="Path 1334" d="M261.817,406.577H237.2V387.849h.356v18.372h23.9v-22.3H237.378v-.356h24.439Z" transform="translate(-204.487 -257.326)" fill="#707070"/>
      <path id="Path_1335" data-name="Path 1335" d="M259.189,410.371H241.045V399.338h14.617v6.584H244.875v-3.174h7.068v.356h-6.712v2.462h10.075v-5.871H241.4v10.321h17.431V395.836H237.7v-.356h21.489Z" transform="translate(-204.808 -264.999)" fill="#707070"/>
      <rect id="Rectangle_1639" data-name="Rectangle 1639" width="0.356" height="3.876" transform="translate(40.451 145.194)" fill="#707070"/>
      <rect id="Rectangle_1640" data-name="Rectangle 1640" width="2.95" height="0.356" transform="translate(54.202 136.658)" fill="#707070"/>
      <rect id="Rectangle_1641" data-name="Rectangle 1641" width="0.356" height="3.228" transform="translate(43.006 134.517)" fill="#707070"/>
      <rect id="Rectangle_1642" data-name="Rectangle 1642" width="3.523" height="0.356" transform="translate(32.892 139.793)" fill="#707070"/>
    </g>
    <g id="freepik--Character--inject-29" transform="translate(47.873 65.579)">
      <path id="Path_1336" data-name="Path 1336" d="M185.423,138.06l-1.247.31-.517.46.688.175,1.514-.435Z" transform="translate(-147.59 -135.644)" fill="#455a64"/>
      <path id="Path_1337" data-name="Path 1337" d="M191.142,135.531l-1.888-2.3H187.33l-1.218,1.425a.549.549,0,0,0,.075.228.887.887,0,0,0-.666.075l1.108,2.936,2.109,2.113,2.668-.745Zm-2.907,1.069-.987-.467a2.729,2.729,0,0,0-.712-1.09.477.477,0,0,0,.1,0,1.193,1.193,0,0,0,.374-.128c.844-.42,1.069-.513,1.069-.513l.538.983Z" transform="translate(-148.787 -132.535)" fill="#ffbe9d"/>
      <path id="Path_1338" data-name="Path 1338" d="M195.107,134.912a2.722,2.722,0,0,1-.648-.713,2.593,2.593,0,0,1-.5-.834c.039-.032.331.292.648.713A2.515,2.515,0,0,1,195.107,134.912Z" transform="translate(-154.22 -132.621)" fill="#eb996e"/>
      <path id="Path_1339" data-name="Path 1339" d="M188.312,139.42a4.427,4.427,0,0,1-1.069-.306H187.2v-.046a3,3,0,0,0-.232-.57,1.475,1.475,0,0,0-.844-.762,1.514,1.514,0,0,0-.488.032.274.274,0,0,1,.114-.093.713.713,0,0,1,.392-.071,1.475,1.475,0,0,1,.99.805,2.536,2.536,0,0,1,.235.616l-.053-.061A4.813,4.813,0,0,1,188.312,139.42Z" transform="translate(-148.864 -135.348)" fill="#eb996e"/>
      <path id="Path_1340" data-name="Path 1340" d="M188.7,136.368l4.4-1.165a.317.317,0,0,0,.221-.4h0a.313.313,0,0,0-.356-.214l-4.681,1.268a2.056,2.056,0,0,1,.42.509Z" transform="translate(-150.564 -133.407)" fill="#455a64"/>
      <path id="Path_1341" data-name="Path 1341" d="M94.936,291.443,97.6,290l.1.99-1.34,5.037a10.733,10.733,0,0,1-1.033-2.259S94.9,291.9,94.9,291.76a1.34,1.34,0,0,1,.043-.317" transform="translate(-90.45 -233.456)" fill="#ffbe9d"/>
      <path id="Path_1342" data-name="Path 1342" d="M156.24,440.93l.452,10.723,5.789-.128-.431-10.745Z" transform="translate(-129.938 -330.52)" fill="#455a64"/>
      <path id="Path_1343" data-name="Path 1343" d="M164.431,451.067c.05,0-.039-2.351-.2-5.244s-.328-5.237-.374-5.233.039,2.348.2,5.244S164.385,451.067,164.431,451.067Z" transform="translate(-134.834 -330.398)" fill="#263238"/>
      <path id="Path_1344" data-name="Path 1344" d="M157.43,468.96l5.789-.15.029.759-5.789.128Z" transform="translate(-130.704 -348.564)" fill="#263238"/>
      <path id="Path_1345" data-name="Path 1345" d="M163.061,458.423a.866.866,0,0,0-.16-.228,4.168,4.168,0,0,0-1.5-1.111,3.109,3.109,0,0,0-1.364-.249,3.064,3.064,0,0,0-2.209,1.087,2.665,2.665,0,0,0-.4.648.691.691,0,0,0-.078.267,5.738,5.738,0,0,1,.566-.834,3.082,3.082,0,0,1,2.137-.99,3.541,3.541,0,0,1,2.241.755C162.786,458.138,163.036,458.445,163.061,458.423Z" transform="translate(-130.652 -340.853)" fill="#263238"/>
      <g id="Group_185" data-name="Group 185" transform="translate(26.441 114.742)" opacity="0.3">
        <path id="Path_1346" data-name="Path 1346" d="M156.63,453.36l.086.955h5.8l-.036-.955Z" transform="translate(-156.63 -453.36)"/>
      </g>
      <path id="Path_1347" data-name="Path 1347" d="M89.309,443.11l-.207,6.43s-6.47,2.447-6.512,3.659l12.64-.16.3-10.039Z" transform="translate(-82.526 -331.949)" fill="#455a64"/>
      <path id="Path_1348" data-name="Path 1348" d="M110.5,459.615a.524.524,0,0,1,.374.588.5.5,0,0,1-.581.374.549.549,0,0,1-.392-.623.524.524,0,0,1,.645-.324" transform="translate(-100.104 -342.639)" fill="#e0e0e0"/>
      <path id="Path_1349" data-name="Path 1349" d="M95.114,469.712V468.9l-12.28.392a.962.962,0,0,0-.424.638Z" transform="translate(-82.41 -348.622)" fill="#263238"/>
      <path id="Path_1350" data-name="Path 1350" d="M100.549,461.373c0,.064.317.086.627.278s.481.449.538.424-.046-.385-.427-.609S100.535,461.316,100.549,461.373Z" transform="translate(-94.087 -343.738)" fill="#263238"/>
      <path id="Path_1351" data-name="Path 1351" d="M96.83,463.085c0,.061.26.16.477.42s.285.534.356.531.1-.356-.182-.673S96.83,463.042,96.83,463.085Z" transform="translate(-91.693 -344.866)" fill="#263238"/>
      <path id="Path_1352" data-name="Path 1352" d="M93.856,465.746c.057,0,.135-.3-.032-.638s-.463-.467-.488-.417.16.232.3.513S93.8,465.742,93.856,465.746Z" transform="translate(-89.442 -345.906)" fill="#263238"/>
      <path id="Path_1353" data-name="Path 1353" d="M100.766,456.824c.025.057.31-.036.663-.021s.631.121.663.068-.239-.271-.656-.281S100.733,456.778,100.766,456.824Z" transform="translate(-94.225 -340.697)" fill="#263238"/>
      <path id="Path_1354" data-name="Path 1354" d="M100,451.4a1.179,1.179,0,0,0,.638-.018,2.83,2.83,0,0,0,.663-.221,3.1,3.1,0,0,0,.356-.2.712.712,0,0,0,.189-.157.271.271,0,0,0,.021-.331.356.356,0,0,0-.274-.135.93.93,0,0,0-.242.039,2.228,2.228,0,0,0-.392.146,2.138,2.138,0,0,0-.581.4c-.289.281-.385.517-.356.527s.167-.178.463-.41a2.526,2.526,0,0,1,.563-.335,1.975,1.975,0,0,1,.356-.121c.135-.039.249-.043.285,0s0,.032,0,.075a.712.712,0,0,1-.139.11,3.371,3.371,0,0,1-.335.2,3.416,3.416,0,0,1-.613.249,4.6,4.6,0,0,0-.6.182Z" transform="translate(-93.734 -336.668)" fill="#263238"/>
      <g id="Group_186" data-name="Group 186" transform="translate(6.616 114.82)" opacity="0.3">
        <path id="Path_1355" data-name="Path 1355" d="M107.254,453.58l-.043,1.482-6.231.1.057-1.343Z" transform="translate(-100.98 -453.58)"/>
      </g>
      <path id="Path_1356" data-name="Path 1356" d="M110.946,139.587l3.064,12.968,7.289-.969-.534-4.136s2.658.043,2.889-2.458a61.6,61.6,0,0,0-1.211-7.859,5.878,5.878,0,0,0-6.947-4.656h0a5.878,5.878,0,0,0-4.549,7.111Z" transform="translate(-100.679 -131.974)" fill="#ffbe9d"/>
      <path id="Path_1357" data-name="Path 1357" d="M116.2,131.319c.627.228.467.538.6.819s.68.26,1.222.474a5.928,5.928,0,0,1,2.113,1.828c.331.62.132.695.071,1.044a14.761,14.761,0,0,0,.509,2.408c.135.588.4,2.319.4,2.319l-.524.274s-.274-1.9-.891-1.885-.77.656-.8.83a2.772,2.772,0,0,0-.4.876c-.135.826-.075,2.034-.135,2.793a7.838,7.838,0,0,1-1.382,2.907l-5.7.527s-2.583-5.843-2.75-7.367a8.625,8.625,0,0,1,1.272-4.938,6.7,6.7,0,0,1,1.511-1.535,11.224,11.224,0,0,1,1.3-.773,6.22,6.22,0,0,1,3.174-.627Z" transform="translate(-99.205 -131.28)" fill="#263238"/>
      <path id="Path_1358" data-name="Path 1358" d="M138.707,155.621a.328.328,0,0,1-.125.21.869.869,0,0,1-.609.253,1.2,1.2,0,0,1-.887-.427,2.088,2.088,0,0,1-.449-1.108,3.563,3.563,0,0,1,.324-2.105,1.244,1.244,0,0,1,.445-.485.406.406,0,0,1,.224-.078,1.607,1.607,0,0,0-.556.623,3.762,3.762,0,0,0-.253,2.02,1.963,1.963,0,0,0,.4,1.019,1.069,1.069,0,0,0,.755.41.88.88,0,0,0,.563-.175C138.65,155.688,138.692,155.614,138.707,155.621Z" transform="translate(-117.292 -144.541)" fill="#eb996e"/>
      <path id="Path_1359" data-name="Path 1359" d="M139.434,157.129c.018,0-.121.107-.317,0a.826.826,0,0,1-.328-.691,1.111,1.111,0,0,1,.246-.713c.125-.153.239-.2.253-.182a1.82,1.82,0,0,0-.31.891.791.791,0,0,0,.214.584C139.313,157.107,139.43,157.09,139.434,157.129Z" transform="translate(-118.703 -146.897)" fill="#eb996e"/>
      <path id="Path_1360" data-name="Path 1360" d="M100.519,279.35,97.84,290.5v52.08l8.03.239.713-30.965,4.036-19.163,3.716,19.694,3.73,29.644,7.15-.207s-1.215-12.547-1-16.053-1.25-14.553-1.25-14.553.228-18.443-.153-20.663c-.431-2.494-.794-10.588-.794-10.9Z" transform="translate(-92.343 -226.6)" fill="#263238"/>
      <path id="Path_1361" data-name="Path 1361" d="M117.966,317.1a12.152,12.152,0,0,1-1.3.285c-.8.164-1.906.417-3.107.766s-2.273.712-3.039,1.019a8.843,8.843,0,0,1-1.25.456,1.425,1.425,0,0,1,.313-.175c.2-.1.509-.242.887-.4a27.82,27.82,0,0,1,3.035-1.069,28.533,28.533,0,0,1,3.139-.713c.406-.068.737-.11.965-.135a1.178,1.178,0,0,1,.356-.032Z" transform="translate(-99.701 -250.897)" fill="#455a64"/>
      <path id="Path_1362" data-name="Path 1362" d="M141.739,314.34a1.175,1.175,0,0,1-.292.139c-.189.078-.474.178-.827.292a16.387,16.387,0,0,1-5.7.713c-.356-.018-.666-.046-.873-.075a1.043,1.043,0,0,1-.317-.064,11.558,11.558,0,0,1,1.2,0,21.831,21.831,0,0,0,2.85-.164,21.418,21.418,0,0,0,2.814-.556,11.357,11.357,0,0,1,1.147-.285Z" transform="translate(-115.447 -249.124)" fill="#455a64"/>
      <path id="Path_1363" data-name="Path 1363" d="M141.124,324.84c-.036.036-1.728-1.6-3.783-3.644s-3.691-3.741-3.652-3.776,1.728,1.6,3.783,3.644S141.163,324.8,141.124,324.84Z" transform="translate(-115.42 -251.106)" fill="#455a64"/>
      <path id="Path_1364" data-name="Path 1364" d="M104.01,281.341l3.431-.121.42-1.824-3.37-.046Z" transform="translate(-96.315 -226.6)" fill="#455a64"/>
      <path id="Path_1365" data-name="Path 1365" d="M117.307,279.52l-.317,1.931h12.048l.032-1.771Z" transform="translate(-104.671 -226.709)" fill="#455a64"/>
      <path id="Path_1366" data-name="Path 1366" d="M153.8,280.01v1.756h4.307l-.075-1.7Z" transform="translate(-128.367 -227.025)" fill="#455a64"/>
      <path id="Path_1367" data-name="Path 1367" d="M107.734,377.248c-.05,0-.67-1.906-1.382-4.275s-1.258-4.328-1.208-4.343.67,1.906,1.386,4.275S107.784,377.233,107.734,377.248Z" transform="translate(-97.043 -284.073)" fill="#455a64"/>
      <path id="Path_1368" data-name="Path 1368" d="M153.218,378.658a25.69,25.69,0,0,1-1.746-2.494,25.142,25.142,0,0,1-1.592-2.6,24.809,24.809,0,0,1,1.749,2.494A25.446,25.446,0,0,1,153.218,378.658Z" transform="translate(-125.844 -287.247)" fill="#455a64"/>
      <path id="Path_1369" data-name="Path 1369" d="M94.625,193.64s-4.653,1.942-5.244,4a73.564,73.564,0,0,0-1.322,7.3v13.21s-1,4.453-.812,6.327,2.216,5.2,2.216,5.2l3.281-1.592,1.026-4.649.192-14.182-.356-7.029Z" transform="translate(-85.509 -171.424)" fill="#707070"/>
      <path id="Path_1370" data-name="Path 1370" d="M104.813,182.928l3.092-2.472.15-2.105,7.962-1.35.908,1.781,3.563.965,2.394-.712.584,1.364,2.978,9.131-2.252,13.4s1.336,7.125,1.165,10.823l-21.489-.3a4.935,4.935,0,0,1-.531-3.331l-.289-18Z" transform="translate(-95.697 -160.712)" fill="#707070"/>
      <path id="Path_1371" data-name="Path 1371" d="M125.13,191.1a.612.612,0,0,1-.182.05l-.534.114-1.959.388c-1.657.331-3.919.809-6.441,1.4s-4.763,1.179-6.391,1.621l-1.91.524-.527.135a.574.574,0,0,1-.185.036.935.935,0,0,1,.175-.071l.517-.171c.449-.146,1.1-.356,1.913-.581,1.621-.474,3.872-1.069,6.384-1.674s4.8-1.047,6.459-1.343c.83-.15,1.5-.264,1.974-.331l.538-.078A.752.752,0,0,1,125.13,191.1Z" transform="translate(-98.24 -169.788)" fill="#263238"/>
      <path id="Path_1372" data-name="Path 1372" d="M118.55,228.648a4.342,4.342,0,0,1,.467-.424l1.293-1.115c1.087-.944,2.565-2.276,4.129-3.819s2.921-3,3.88-4.076l1.133-1.275a4.1,4.1,0,0,1,.431-.46,4.629,4.629,0,0,1-.374.506c-.249.317-.62.766-1.09,1.315-.937,1.1-2.28,2.576-3.848,4.122s-3.067,2.868-4.179,3.787c-.552.463-1.008.827-1.332,1.069a3.918,3.918,0,0,1-.509.37Z" transform="translate(-105.675 -186.771)" fill="#263238"/>
      <path id="Path_1373" data-name="Path 1373" d="M134.187,235.15a.972.972,0,0,1-.11.146l-.335.392c-.3.356-.737.823-1.293,1.4a55.931,55.931,0,0,1-9.669,8c-.673.438-1.229.78-1.617,1.008-.182.1-.328.185-.449.257a.574.574,0,0,1-.164.078,1.522,1.522,0,0,1,.143-.11l.431-.289c.378-.242.919-.6,1.582-1.051,1.329-.9,3.128-2.2,5.016-3.762s3.5-3.085,4.631-4.222c.566-.57,1.022-1.033,1.332-1.357l.356-.356C134.134,235.189,134.18,235.146,134.187,235.15Z" transform="translate(-106.963 -198.146)" fill="#263238"/>
      <path id="Path_1374" data-name="Path 1374" d="M146.91,265.656a22.085,22.085,0,0,0,1.482-2.437,21.663,21.663,0,0,0,.973-2.679,2.9,2.9,0,0,1-.121.837,9.619,9.619,0,0,1-.684,1.924,9.507,9.507,0,0,1-1.069,1.735A2.936,2.936,0,0,1,146.91,265.656Z" transform="translate(-123.932 -214.491)" fill="#263238"/>
      <path id="Path_1375" data-name="Path 1375" d="M159,161.664l8.044-.328,3.919-1.874.438-5.5-.356-3.894,3.384-1s2.811,7.214,2.718,9.84c-.032.884-.086,1.753-.139,2.522a4.7,4.7,0,0,1-2.494,3.8l-12.066,6.323L159,161.664" transform="translate(-131.715 -142.726)" fill="#707070"/>
      <path id="Path_1376" data-name="Path 1376" d="M103.635,221.761a7.267,7.267,0,0,1-.467-1.592,7.482,7.482,0,0,1-.289-1.639,7.385,7.385,0,0,1,.47,1.592A7.5,7.5,0,0,1,103.635,221.761Z" transform="translate(-95.588 -187.447)" fill="#263238"/>
      <path id="Path_1377" data-name="Path 1377" d="M104.092,220.18a.947.947,0,0,1,.025.214c0,.164.018.356.032.62.021.563.046,1.332.082,2.276.05,1.945.121,4.589.2,7.513a25.785,25.785,0,0,1-.1,4.143c-.082.638-.264,1.225-.356,1.781a4.76,4.76,0,0,0-.057.805c0,.26-.036.513-.053.755a8.478,8.478,0,0,0,.061,2.255,1.628,1.628,0,0,0,.228.559c.085.107.143.157.139.164s0,0-.046-.032a.623.623,0,0,1-.121-.11,1.45,1.45,0,0,1-.267-.563,7.7,7.7,0,0,1-.125-2.28c0-.242.029-.492.039-.755a5.073,5.073,0,0,1,.05-.823c.093-.57.264-1.144.338-1.781a26.783,26.783,0,0,0,.089-4.118c-.057-2.925-.107-5.568-.146-7.513,0-.944,0-1.717-.021-2.276v-.62a1.14,1.14,0,0,1,.014-.214Z" transform="translate(-96.112 -188.509)" fill="#263238"/>
      <path id="Path_1378" data-name="Path 1378" d="M162.429,192.608a5.268,5.268,0,0,1-.378-.884c-.21-.556-.481-1.329-.759-2.191s-.509-1.649-.663-2.223a4.866,4.866,0,0,1-.21-.941,5.049,5.049,0,0,1,.335.9c.2.623.445,1.375.712,2.205s.509,1.578.713,2.2A4.895,4.895,0,0,1,162.429,192.608Z" transform="translate(-132.629 -166.744)" fill="#263238"/>
      <path id="Path_1379" data-name="Path 1379" d="M94.486,264.729a3.377,3.377,0,0,1-2.066-2.519,5.526,5.526,0,0,0,2.066,2.519Z" transform="translate(-88.854 -215.566)" fill="#263238"/>
      <path id="Path_1380" data-name="Path 1380" d="M96.46,284.638a2.137,2.137,0,0,1-.5.638,4.7,4.7,0,0,1-3.623,1.3,2.137,2.137,0,0,1-.794-.178c0-.029.31.036.8.046a5.212,5.212,0,0,0,3.527-1.261C96.239,284.859,96.435,284.616,96.46,284.638Z" transform="translate(-88.287 -230.003)" fill="#263238"/>
      <path id="Path_1381" data-name="Path 1381" d="M197.447,154.874c0,.053-.883.185-1.927.538s-1.831.777-1.86.713a7.079,7.079,0,0,1,3.787-1.265Z" transform="translate(-154.027 -146.459)" fill="#263238"/>
      <path id="Path_1382" data-name="Path 1382" d="M200.851,150.768c0,.025-.075.057-.1.164a.164.164,0,1,0,.274-.046c-.064-.089-.15-.1-.153-.121s.107-.082.246.032a.31.31,0,0,1,.114.278.314.314,0,0,1-.271.264.306.306,0,0,1-.331-.46C200.73,150.725,200.855,150.743,200.851,150.768Z" transform="translate(-158.482 -143.799)" fill="#263238"/>
      <path id="Path_1383" data-name="Path 1383" d="M125.773,182a1.285,1.285,0,0,1-.356.093l-.965.182-3.185.581-3.185.6-.965.175a1.478,1.478,0,0,1-.356.043,1.315,1.315,0,0,1,.356-.114c.224-.061.549-.139.955-.232.809-.189,1.931-.424,3.174-.656s2.376-.413,3.206-.527c.41-.057.745-.1.976-.125a1.522,1.522,0,0,1,.346-.021Z" transform="translate(-104.523 -163.927)" fill="#263238"/>
      <path id="Path_1384" data-name="Path 1384" d="M101.2,204.29a1.069,1.069,0,0,1-.082-.278,5.971,5.971,0,0,1-.1-.773,15.4,15.4,0,0,1,.089-2.565c.1-.994.239-1.892.328-2.537a7.207,7.207,0,0,1,.164-1.047,4.941,4.941,0,0,1-.036,1.069c-.053.652-.167,1.55-.271,2.54a21.02,21.02,0,0,0-.143,2.54C101.16,203.884,101.231,204.283,101.2,204.29Z" transform="translate(-94.376 -173.645)" fill="#263238"/>
      <path id="Path_1385" data-name="Path 1385" d="M126.2,217.8c-.046-.025,1.1-2.284,2.551-5.052s2.672-4.988,2.718-4.963-1.1,2.284-2.554,5.052S126.244,217.84,126.2,217.8Z" transform="translate(-110.597 -180.533)" fill="#263238"/>
      <path id="Path_1386" data-name="Path 1386" d="M170.023,200.13a4.633,4.633,0,0,1-.306.784c-.2.477-.463,1.144-.712,1.9s-.42,1.425-.538,1.949a4.874,4.874,0,0,1-.21.812,3.125,3.125,0,0,1,.082-.841,14.69,14.69,0,0,1,.488-1.977,13.8,13.8,0,0,1,.766-1.892,3.253,3.253,0,0,1,.431-.73Z" transform="translate(-137.672 -175.602)" fill="#263238"/>
      <path id="Path_1387" data-name="Path 1387" d="M94.2,212.21a3.5,3.5,0,0,1-.456.125c-.281.071-.67.171-1.1.3s-.805.253-1.069.356a3.278,3.278,0,0,1-.449.146,2.283,2.283,0,0,1,.431-.2,9.8,9.8,0,0,1,1.069-.356c.417-.11.819-.221,1.108-.278A2.7,2.7,0,0,1,94.2,212.21Z" transform="translate(-88.023 -183.378)" fill="#e0e0e0"/>
      <path id="Path_1388" data-name="Path 1388" d="M116.339,214.229c0,.018-2.526.766-5.654,1.667S105,217.514,105,217.5s2.526-.77,5.657-1.671S116.332,214.208,116.339,214.229Z" transform="translate(-96.952 -184.678)" fill="#e0e0e0"/>
      <path id="Path_1389" data-name="Path 1389" d="M147.465,205.789c0,.018-2.259.855-5.055,1.867s-5.073,1.817-5.08,1.8,2.255-.855,5.055-1.87S147.458,205.768,147.465,205.789Z" transform="translate(-117.765 -179.245)" fill="#e0e0e0"/>
      <path id="Path_1390" data-name="Path 1390" d="M123.3,195.54l-.221.064-.638.171-2.351.62c-1.984.52-4.731,1.233-7.773,1.984s-5.8,1.4-7.805,1.845l-2.376.513-.648.132c-.15.032-.228.043-.228.043l.224-.057.645-.146,2.369-.538c2-.456,4.763-1.112,7.8-1.863l7.777-1.963,2.358-.6.641-.157Z" transform="translate(-94.545 -172.647)" fill="#e0e0e0"/>
      <path id="Path_1391" data-name="Path 1391" d="M123.277,184c0,.021-3.381.88-7.56,1.917s-7.574,1.863-7.577,1.842,3.377-.876,7.56-1.913S123.274,183.978,123.277,184Z" transform="translate(-98.974 -165.218)" fill="#e0e0e0"/>
      <path id="Path_1392" data-name="Path 1392" d="M171.265,184.4a.24.24,0,0,1,0,.068l.025.192c.018.164.039.406.057.712a19.74,19.74,0,0,1,0,2.341,19.09,19.09,0,0,1-.3,2.323c-.057.3-.107.531-.15.713a.861.861,0,0,1-.046.189c-.014.061-.021.064-.021.061v-.064l.032-.192.128-.695c.1-.591.214-1.425.274-2.319a23.01,23.01,0,0,0,.029-2.333c0-.264-.025-.5-.036-.713v-.192a.335.335,0,0,1,.007-.089Z" transform="translate(-139.33 -165.476)" fill="#e0e0e0"/>
      <path id="Path_1393" data-name="Path 1393" d="M184.144,190.106v-.068l-.029-.192c-.021-.171-.053-.413-.1-.712a18.621,18.621,0,0,0-.517-2.316,19.6,19.6,0,0,0-.816-2.23c-.125-.278-.228-.5-.3-.656l-.082-.178a.513.513,0,0,1-.025-.064s.018,0,.039.057a1.034,1.034,0,0,0,.1.171c.082.15.192.356.321.648a16,16,0,0,1,.841,2.23,16.593,16.593,0,0,1,.5,2.33c.043.3.068.549.078.713v.2A.335.335,0,0,1,184.144,190.106Z" transform="translate(-146.695 -165.019)" fill="#e0e0e0"/>
      <path id="Path_1394" data-name="Path 1394" d="M195.274,183.764a2.175,2.175,0,0,1-.093-.232l-.235-.638c-.207-.538-.509-1.268-.9-2.056a22.331,22.331,0,0,0-1.1-1.952c-.132-.21-.257-.4-.356-.574a1.869,1.869,0,0,1-.128-.214,1.92,1.92,0,0,1,.153.2c.1.128.228.321.388.563a19.236,19.236,0,0,1,1.122,1.949,18.926,18.926,0,0,1,.883,2.07c.1.271.167.492.214.645A1.37,1.37,0,0,1,195.274,183.764Z" transform="translate(-153.255 -161.42)" fill="#e0e0e0"/>
      <path id="Path_1395" data-name="Path 1395" d="M198.912,172.1a.93.93,0,0,1-.221-.029l-.595-.107c-.5-.089-1.2-.2-1.967-.31s-1.471-.178-1.977-.228l-.6-.057a1.668,1.668,0,0,1-.221-.029.88.88,0,0,1,.221,0,4.572,4.572,0,0,1,.606.032c.509.036,1.211.1,1.984.21s1.468.228,1.967.331c.249.05.452.093.591.128A1.521,1.521,0,0,1,198.912,172.1Z" transform="translate(-153.815 -157.062)" fill="#e0e0e0"/>
      <path id="Path_1396" data-name="Path 1396" d="M198.65,159.741h-.659a9.761,9.761,0,0,0-1.582.135,10.248,10.248,0,0,0-1.535.385l-.452.157a.752.752,0,0,1-.171.057.712.712,0,0,1,.16-.082c.1-.05.257-.11.449-.182a8.571,8.571,0,0,1,1.543-.41,8.834,8.834,0,0,1,1.592-.114,4.849,4.849,0,0,1,.484.029.634.634,0,0,1,.171.025Z" transform="translate(-154.407 -149.566)" fill="#e0e0e0"/>
      <path id="Path_1397" data-name="Path 1397" d="M113.337,231c0,.021-1.756.431-3.919.919s-3.954.862-3.958.862,1.756-.431,3.919-.919S113.333,231,113.337,231Z" transform="translate(-97.248 -195.474)" fill="#e0e0e0"/>
      <path id="Path_1398" data-name="Path 1398" d="M130.07,233.226a20.81,20.81,0,0,1-2.49-.16,11.639,11.639,0,0,1,1.247.043A11.873,11.873,0,0,1,130.07,233.226Z" transform="translate(-111.488 -196.803)" fill="#e0e0e0"/>
      <path id="Path_1399" data-name="Path 1399" d="M150.314,221.209s-2.034.563-4.553,1.215-4.567,1.165-4.571,1.144,2.031-.563,4.553-1.215S150.306,221.187,150.314,221.209Z" transform="translate(-120.25 -189.171)" fill="#e0e0e0"/>
      <path id="Path_1400" data-name="Path 1400" d="M110.592,247.678c0,.021-1.019.221-2.287.445s-2.3.381-2.3.381,1.022-.217,2.291-.442S110.589,247.66,110.592,247.678Z" transform="translate(-97.596 -206.21)" fill="#e0e0e0"/>
      <path id="Path_1401" data-name="Path 1401" d="M134.235,240c0,.018-2.319.406-5.187.862s-5.2.812-5.2.791,2.319-.406,5.187-.862S134.235,240,134.235,240Z" transform="translate(-109.087 -201.268)" fill="#e0e0e0"/>
      <path id="Path_1402" data-name="Path 1402" d="M156.956,240.988a.551.551,0,0,1-.16.025l-.431.039c-.356.032-.866.078-1.425.15s-1.069.146-1.425.2l-.427.071a.521.521,0,0,1-.157,0l.153-.043c.1-.025.242-.057.424-.093.356-.071.859-.157,1.425-.228s1.069-.11,1.425-.128h.435A.713.713,0,0,1,156.956,240.988Z" transform="translate(-127.807 -201.9)" fill="#e0e0e0"/>
      <path id="Path_1403" data-name="Path 1403" d="M113.636,260.15a.524.524,0,0,1-.085.039l-.249.107c-.217.089-.538.21-.933.356a24.84,24.84,0,0,1-6.434,1.318c-.42.029-.759.043-1,.046h.007c.235,0,.574-.036.994-.068a28.785,28.785,0,0,0,3.249-.467,28.222,28.222,0,0,0,3.171-.851c.4-.132.712-.246.94-.328l.253-.093Z" transform="translate(-96.682 -214.24)" fill="#e0e0e0"/>
      <path id="Path_1404" data-name="Path 1404" d="M140.294,254.48a1.071,1.071,0,0,1-.128.05l-.374.128c-.328.114-.8.267-1.389.449-1.179.356-2.818.823-4.631,1.25s-3.509.73-4.724.923c-.609.1-1.1.171-1.446.214l-.392.05a1.3,1.3,0,0,1-.139,0l.135-.025.392-.064,1.425-.235c1.215-.207,2.886-.52,4.717-.948s3.47-.876,4.653-1.229l1.393-.42.381-.118Z" transform="translate(-111.16 -210.59)" fill="#e0e0e0"/>
      <path id="Path_1405" data-name="Path 1405" d="M120.293,271.42l-.157.032-.452.078c-.4.064-.969.153-1.678.246-1.425.192-3.384.406-5.565.524s-4.161.121-5.59.082c-.713-.018-1.293-.043-1.692-.068l-.463-.025h.467c.4,0,.976.032,1.692.043,1.425.025,3.406,0,5.586-.1s4.143-.321,5.561-.5c.713-.089,1.283-.167,1.678-.224l.46-.064Z" transform="translate(-96.656 -221.495)" fill="#e0e0e0"/>
      <path id="Path_1406" data-name="Path 1406" d="M155.768,268.947a.855.855,0,0,1-.2,0h-2.3c-.695,0-1.311.036-1.763.061l-.534.025a.926.926,0,0,1-.2,0,1.267,1.267,0,0,1,.2-.029l.531-.05c.452-.036,1.069-.071,1.781-.082s1.315,0,1.781.018l.534.032Z" transform="translate(-126.423 -219.852)" fill="#e0e0e0"/>
      <path id="Path_1407" data-name="Path 1407" d="M94.8,229.157c0,.018-1.272.264-2.85.545s-2.85.5-2.85.474,1.272-.264,2.85-.545S94.8,229.136,94.8,229.157Z" transform="translate(-86.717 -194.287)" fill="#e0e0e0"/>
      <path id="Path_1408" data-name="Path 1408" d="M94.949,244.845c0,.018-1.186.153-2.654.3s-2.665.242-2.665.221,1.186-.153,2.658-.3S94.949,244.823,94.949,244.845Z" transform="translate(-87.058 -204.385)" fill="#e0e0e0"/>
      <path id="Path_1409" data-name="Path 1409" d="M95.945,257.445c0,.021-1.233.075-2.757.121s-2.757.068-2.757.046,1.233-.075,2.757-.121S95.945,257.424,95.945,257.445Z" transform="translate(-87.573 -212.493)" fill="#e0e0e0"/>
      <path id="Path_1410" data-name="Path 1410" d="M94.058,270.728a1.14,1.14,0,0,1-.2,0,3.426,3.426,0,0,1-.549-.036,11.53,11.53,0,0,1-3.523-.891c-.214-.093-.385-.171-.5-.232a.713.713,0,0,1-.175-.1,1.147,1.147,0,0,1,.185.075c.121.05.292.125.509.21a14.163,14.163,0,0,0,1.717.559,14.368,14.368,0,0,0,1.781.328l.545.057a1.193,1.193,0,0,1,.21.029Z" transform="translate(-86.723 -220.239)" fill="#e0e0e0"/>
      <path id="Path_1411" data-name="Path 1411" d="M94.154,277.32a1.514,1.514,0,0,1-.182.146c-.121.093-.3.217-.524.356a14.784,14.784,0,0,1-1.831,1.033,14.635,14.635,0,0,1-1.963.762c-.26.075-.47.135-.616.167a1.965,1.965,0,0,1-.228.05,1.336,1.336,0,0,1,.221-.078c.146-.043.356-.107.606-.192a17.02,17.02,0,0,0,3.783-1.781c.228-.142.41-.264.534-.356a1.266,1.266,0,0,1,.2-.107Z" transform="translate(-86.53 -225.293)" fill="#e0e0e0"/>
      <path id="Path_1412" data-name="Path 1412" d="M114.014,229.845v-.281c0-.185.018-.477.029-.816.025-.713.057-1.746.1-3,.071-2.529.132-6.024.1-9.886s-.135-7.357-.242-9.886c-.057-1.25-.107-2.266-.139-2.993,0-.338-.029-.609-.039-.816a1.725,1.725,0,0,1,0-.281,2.754,2.754,0,0,0,.021.281,7.571,7.571,0,0,1,.039.827c.046.713.1,1.731.16,3,.121,2.526.239,6.024.267,9.886s-.043,7.36-.125,9.89c-.043,1.265-.086,2.287-.121,2.993l-.043.816A2.261,2.261,0,0,1,114.014,229.845Z" transform="translate(-102.628 -176.735)" fill="#e0e0e0"/>
      <path id="Path_1413" data-name="Path 1413" d="M129.959,207.62c-.021,0-.3-2.084-.62-4.656s-.563-4.66-.542-4.663.3,2.081.616,4.656S129.977,207.616,129.959,207.62Z" transform="translate(-112.271 -174.424)" fill="#e0e0e0"/>
      <path id="Path_1414" data-name="Path 1414" d="M129.7,231.234a13.183,13.183,0,0,1-.242-1.4c-.11-.773-.185-1.4-.167-1.407a13.4,13.4,0,0,1,.242,1.4A12.879,12.879,0,0,1,129.7,231.234Z" transform="translate(-112.591 -193.82)" fill="#e0e0e0"/>
      <path id="Path_1415" data-name="Path 1415" d="M134.387,243.271c-.021,0-.053-1.8-.071-4.019s-.018-4.022,0-4.022.053,1.8.075,4.022S134.408,243.271,134.387,243.271Z" transform="translate(-115.816 -198.197)" fill="#e0e0e0"/>
      <path id="Path_1416" data-name="Path 1416" d="M132.428,266.892c-.018,0-.257-1.628-.531-3.637s-.481-3.641-.46-3.644.26,1.624.534,3.634S132.449,266.874,132.428,266.892Z" transform="translate(-113.97 -213.892)" fill="#e0e0e0"/>
      <path id="Path_1417" data-name="Path 1417" d="M149.711,210.008c-.021,0-.566-3.338-1.222-7.456s-1.172-7.481-1.151-7.481.566,3.335,1.222,7.456S149.711,210.008,149.711,210.008Z" transform="translate(-124.207 -172.345)" fill="#e0e0e0"/>
      <path id="Path_1418" data-name="Path 1418" d="M150.109,252.267c-.018,0-.2-1.482-.413-3.313s-.356-3.324-.356-3.324.207,1.482.417,3.313S150.131,252.267,150.109,252.267Z" transform="translate(-125.496 -204.892)" fill="#e0e0e0"/>
      <path id="Path_1419" data-name="Path 1419" d="M174.923,182.92a13.081,13.081,0,0,1-1.425,1.133,16.447,16.447,0,0,1-1.706,1.033,18.549,18.549,0,0,1-2.223.987,19,19,0,0,1-2.341.659,16.136,16.136,0,0,1-1.967.285,13.737,13.737,0,0,1-1.831.046h.484c.314,0,.773-.025,1.332-.078a17.793,17.793,0,0,0,1.959-.3,19.6,19.6,0,0,0,2.33-.666,19.3,19.3,0,0,0,2.216-.976,17.792,17.792,0,0,0,1.7-1.019c.467-.317.834-.591,1.069-.791l.285-.224Z" transform="translate(-134.566 -164.523)" fill="#e0e0e0"/>
      <path id="Path_1420" data-name="Path 1420" d="M195.773,166.267a.264.264,0,0,1,0-.093c0-.082.018-.171.025-.267.029-.274.064-.606.1-.987.078-.834.175-1.984.232-3.26s.068-2.43.061-3.267V157.04a.32.32,0,0,1,0,.093,1.457,1.457,0,0,0,.018.271c0,.235.025.574.036.99,0,.837,0,2-.039,3.27s-.16,2.43-.257,3.26c-.046.417-.089.752-.125.987a1.868,1.868,0,0,1-.039.264A.867.867,0,0,1,195.773,166.267Z" transform="translate(-155.384 -147.863)" fill="#e0e0e0"/>
      <path id="Path_1421" data-name="Path 1421" d="M182.785,156.34s.021.085.053.249.085.406.16.713c.146.62.4,1.5.695,2.6a11.906,11.906,0,0,1,.477,3.958,5.486,5.486,0,0,1-2.273,4.19,19.875,19.875,0,0,1-2.138,1.393c-.712.42-1.382.819-2.034,1.193-1.3.752-2.494,1.4-3.5,1.938s-1.824.951-2.39,1.236l-.656.328-.232.107.224-.121.648-.356c.566-.292,1.382-.712,2.38-1.258s2.187-1.2,3.488-1.949c.652-.378,1.332-.777,2.034-1.2a20.306,20.306,0,0,0,2.113-1.389,5.426,5.426,0,0,0,2.248-4.133,12.062,12.062,0,0,0-.46-3.94c-.285-1.1-.534-1.988-.673-2.608A8.02,8.02,0,0,1,182.785,156.34Z" transform="translate(-139.407 -147.412)" fill="#e0e0e0"/>
      <path id="Path_1422" data-name="Path 1422" d="M93.44,223.2v-.221c0-.142.029-.356.05-.631l.189-2.316c.153-1.956.356-4.66.52-7.649s.274-5.7.356-7.663c.032-.962.057-1.749.075-2.323q0-.385.021-.631v.631c0,.574-.029,1.361-.05,2.326-.05,1.959-.153,4.67-.321,7.663s-.356,5.7-.541,7.649c-.086.958-.16,1.746-.21,2.316-.029.257-.05.467-.064.627S93.44,223.2,93.44,223.2Z" transform="translate(-89.511 -176.516)" fill="#e0e0e0"/>
      <path id="Path_1423" data-name="Path 1423" d="M94.008,274.752a.189.189,0,0,0-.036-.085,1.34,1.34,0,0,1-.078-.253c-.068-.221-.16-.541-.26-.94a26.245,26.245,0,0,1-.588-3.171,25.125,25.125,0,0,1-.178-3.206,9.308,9.308,0,0,1,.028-.98v-.356a.356.356,0,0,1,0,.093V267.1a29.638,29.638,0,0,0,.2,3.206,29.244,29.244,0,0,0,.563,3.164c.1.4.178.712.239.948q.039.139.064.257Z" transform="translate(-89.142 -217.851)" fill="#e0e0e0"/>
      <path id="Path_1424" data-name="Path 1424" d="M102.157,243.575v-.962c0-.645,0-1.539.025-2.636,0-2.223.029-5.3,0-8.693s-.078-6.473-.128-8.7c-.028-1.1-.046-1.991-.064-2.636v-.712a6.342,6.342,0,0,0,.032.712c0,.645.046,1.539.082,2.636.064,2.223.128,5.3.153,8.7s0,6.47-.028,8.7c0,1.094-.032,1.991-.046,2.633,0,.3,0,.534-.018.713A1.165,1.165,0,0,0,102.157,243.575Z" transform="translate(-95.015 -187.743)" fill="#e0e0e0"/>
      <path id="Path_1425" data-name="Path 1425" d="M114.406,193.152c-.021,0-.089-1-.153-2.244s-.1-2.244-.075-2.248.089,1,.15,2.244S114.427,193.149,114.406,193.152Z" transform="translate(-102.856 -168.218)" fill="#e0e0e0"/>
      <path id="Path_1426" data-name="Path 1426" d="M128.959,188.831c-.021,0-.121-1.022-.224-2.287s-.167-2.294-.15-2.294.121,1.022.224,2.287S128.977,188.828,128.959,188.831Z" transform="translate(-112.133 -165.379)" fill="#e0e0e0"/>
      <path id="Path_1427" data-name="Path 1427" d="M143.547,185.857c-.021,0-.31-.93-.645-2.088s-.591-2.1-.574-2.109.31.93.645,2.088S143.565,185.849,143.547,185.857Z" transform="translate(-120.982 -163.712)" fill="#e0e0e0"/>
      <path id="Path_1428" data-name="Path 1428" d="M125.054,178.8a.288.288,0,0,1-.085.021l-.249.046-.919.16c-.773.135-1.842.335-3.014.581s-2.234.492-3,.677l-.9.221-.246.057a.241.241,0,0,1-.089,0l.085-.029.242-.071.9-.242c.762-.2,1.82-.456,3-.713s2.244-.435,3.021-.559l.919-.135.253-.032A.334.334,0,0,1,125.054,178.8Z" transform="translate(-104.388 -161.858)" fill="#e0e0e0"/>
      <path id="Path_1429" data-name="Path 1429" d="M120.735,182.384a7.125,7.125,0,0,1-.021-1.019,7.513,7.513,0,0,1,.05-1.015,6.8,6.8,0,0,1,.025,1.019,7.051,7.051,0,0,1-.053,1.015Z" transform="translate(-107.062 -162.869)" fill="#e0e0e0"/>
      <path id="Path_1430" data-name="Path 1430" d="M134.842,180.135a6.686,6.686,0,0,1-.207-.916,5.628,5.628,0,0,1-.135-.93,12.135,12.135,0,0,1,.356,1.845Z" transform="translate(-115.943 -161.542)" fill="#e0e0e0"/>
    </g>
    <g id="freepik--Floor--inject-29" transform="translate(30.132 186.626)">
      <path id="Path_1431" data-name="Path 1431" d="M189.639,471.153c0,.05-35.155.093-78.511.093s-78.518-.043-78.518-.093,35.148-.093,78.518-.093S189.639,471.1,189.639,471.153Z" transform="translate(-32.61 -471.06)" fill="#263238"/>
    </g>
    <g id="freepik--speech-bubble--inject-29" transform="translate(33.286 55.936)">
      <path id="Path_1432" data-name="Path 1432" d="M50.7,104.215a1.069,1.069,0,0,0-.16,0h-.477a4.94,4.94,0,0,0-.777.075c-.15.025-.317.039-.488.075l-.552.135a9.18,9.18,0,0,0-5.511,13.523,9.262,9.262,0,0,0,4.432,3.855,8.956,8.956,0,0,0,3.074.677,8.718,8.718,0,0,0,3.206-.4l.093-.028h-.075l5.376,1.863.217.075-.068-.221c-.481-1.546-.948-3.042-1.4-4.475l-.021.107a9.2,9.2,0,0,0,2.138-7.959,9.02,9.02,0,0,0-1.386-3.313,9.263,9.263,0,0,0-2.138-2.219,10.333,10.333,0,0,0-1.115-.713,9.881,9.881,0,0,0-1.069-.484,7.675,7.675,0,0,0-.916-.3,5.654,5.654,0,0,0-.83-.171c-.253-.036-.474-.071-.666-.089h-.787a.459.459,0,0,0-.1,0,.3.3,0,0,0,.1,0l.3.025.485.036c.192.021.413.064.659.1a6.16,6.16,0,0,1,.819.189,7.3,7.3,0,0,1,.951.321,10.487,10.487,0,0,1,1.069.492,10.33,10.33,0,0,1,1.09.712,9.288,9.288,0,0,1,2.073,2.2,8.906,8.906,0,0,1,1.34,3.256,9.02,9.02,0,0,1-2.138,7.773l-.043.046v.061q.67,2.138,1.386,4.482l.15-.146-5.372-1.867H53.5l-.085.032a8.568,8.568,0,0,1-3.135.388,8.849,8.849,0,0,1-3-.656,9.048,9.048,0,0,1,1-17.075l.542-.143c.171-.043.335-.061.488-.086a4.76,4.76,0,0,1,.766-.1l.474-.036A.934.934,0,0,0,50.7,104.215Z" transform="translate(-41.465 -104.212)" fill="#263238"/>
      <path id="Path_1433" data-name="Path 1433" d="M65.53,124.129a3.11,3.11,0,1,0-4.389,2.879v.784l2.725-.039v-.834a3.11,3.11,0,0,0,1.664-2.789Z" transform="translate(-52.953 -115.059)" fill="#fafafa"/>
      <path id="Path_1434" data-name="Path 1434" d="M65.392,124.019a.823.823,0,0,1,0,.235,3.149,3.149,0,0,1-.1.677,3.067,3.067,0,0,1-.445.987,3.174,3.174,0,0,1-1.069.958l.036-.061v.9h-.075l-2.722.057h-.089v-.862l.05.078a3.208,3.208,0,0,1-.26-5.707,3.491,3.491,0,0,1,.884-.328,3.4,3.4,0,0,1,.884-.061,3.185,3.185,0,0,1,1.493.5A3.107,3.107,0,0,1,65.3,123.2a2.38,2.38,0,0,1,.089.827,5.943,5.943,0,0,0-.157-.805,3.078,3.078,0,0,0-2.757-2.173,3.242,3.242,0,0,0-.841.068,3.374,3.374,0,0,0-.83.317,3.049,3.049,0,0,0-1.268,1.4,2.982,2.982,0,0,0-.171,2.009,3.032,3.032,0,0,0,1.671,1.984l.053.025v.841L61,127.606l2.725-.028-.075.071v-.873h.036a3.135,3.135,0,0,0,1.518-1.838A4.916,4.916,0,0,0,65.392,124.019Z" transform="translate(-52.814 -114.949)" fill="#263238"/>
      <path id="Path_1435" data-name="Path 1435" d="M65.539,133.386a.357.357,0,0,1,0-.039v-.11a4.106,4.106,0,0,1,.05-.431c.025-.185.061-.417.114-.677a4.524,4.524,0,0,1,.271-.869,2.586,2.586,0,0,1,.246-.47.616.616,0,0,1,.21-.2.321.321,0,0,1,.3,0,.2.2,0,0,1,.1.121.21.21,0,0,1,0,.16.438.438,0,0,1-.235.21.851.851,0,0,1-1.094-.549.638.638,0,0,1-.025-.356.278.278,0,0,1,.278-.221.192.192,0,0,1,.16.107.267.267,0,0,1,.028.189.606.606,0,0,1-.214.313.923.923,0,0,1-.713.221.8.8,0,0,1-.609-.438.481.481,0,0,1-.028-.378.256.256,0,0,1,.135-.139.242.242,0,0,1,.192,0,.321.321,0,0,1,.132.135.406.406,0,0,1,.05.178.919.919,0,0,1-.47.883.948.948,0,0,1-.641.1.492.492,0,0,1-.285-.146.246.246,0,0,1-.021-.3.214.214,0,0,1,.139-.068.267.267,0,0,1,.15.025.456.456,0,0,1,.192.21c.082.167.146.331.214.488.257.62.442,1.136.566,1.493.061.175.107.314.139.41l.032.107v0l-.039-.107c-.032-.1-.082-.235-.143-.41-.128-.356-.317-.866-.577-1.486-.068-.157-.135-.321-.214-.485a.42.42,0,0,0-.182-.2.21.21,0,0,0-.249.036.217.217,0,0,0,.021.26.488.488,0,0,0,.267.132.919.919,0,0,0,.616-.1.908.908,0,0,0,.413-.509.844.844,0,0,0,.039-.356.335.335,0,0,0-.153-.257.182.182,0,0,0-.16,0,.2.2,0,0,0-.114.118.42.42,0,0,0,.029.356.766.766,0,0,0,.577.42.883.883,0,0,0,.691-.214.57.57,0,0,0,.2-.292.242.242,0,0,0-.025-.164.16.16,0,0,0-.132-.089.224.224,0,0,0-.153.053.271.271,0,0,0-.085.139.645.645,0,0,0,.021.356.837.837,0,0,0,.427.492.819.819,0,0,0,.62.036.42.42,0,0,0,.221-.192.182.182,0,0,0-.075-.239.3.3,0,0,0-.267,0,.552.552,0,0,0-.2.185,2.771,2.771,0,0,0-.246.463,4.5,4.5,0,0,0-.274.862c-.057.26-.093.488-.121.673s-.043.331-.057.431a.241.241,0,0,0,0,.114A.23.23,0,0,1,65.539,133.386Z" transform="translate(-55.602 -120.693)" fill="#263238"/>
      <path id="Path_1436" data-name="Path 1436" d="M67.015,140.629l-2.337.036a.171.171,0,0,1-.178-.171h0a.171.171,0,0,1,.171-.178l2.341-.036a.175.175,0,0,1,.178.171h0a.175.175,0,0,1-.175.178Z" transform="translate(-56.294 -127.431)" fill="#263238"/>
      <path id="Path_1437" data-name="Path 1437" d="M67.032,141.69l-2.341.036a.175.175,0,0,0-.171.178.178.178,0,0,0,.178.175h.257l.356.641a.221.221,0,0,0,.2.118h.837a.224.224,0,0,0,.2-.128l.321-.652h.178a.178.178,0,1,0,0-.356Z" transform="translate(-56.307 -128.338)" fill="#263238"/>
      <g id="Group_187" data-name="Group 187" transform="translate(6.702 6.594)" opacity="0.2">
        <path id="Path_1438" data-name="Path 1438" d="M61.016,123.29a2.234,2.234,0,0,1,.616-.42,1.714,1.714,0,0,1,.477-.15c.118,0,.185,0,.192.021a5.383,5.383,0,0,1-.534.356,2.683,2.683,0,0,0-.937,1.1,2.729,2.729,0,0,0-.192,1.425c.05.381.143.613.093.638s-.078-.029-.146-.125a1.692,1.692,0,0,1-.21-.452,2.422,2.422,0,0,1-.1-.745,2.469,2.469,0,0,1,.2-.9" transform="translate(-60.277 -122.72)" fill="#fff"/>
      </g>
      <g id="Group_188" data-name="Group 188" transform="translate(9.072 6.358)" opacity="0.2">
        <path id="Path_1439" data-name="Path 1439" d="M67.333,122.44c-.2,0-.356-.05-.392-.153s.025-.11.1-.153a.577.577,0,0,1,.292-.075.559.559,0,0,1,.3.068c.071.043.107.1.1.15" transform="translate(-66.93 -122.058)" fill="#fff"/>
      </g>
      <path id="Path_1440" data-name="Path 1440" d="M68.068,144.436s-.061-.021-.16-.046a1.29,1.29,0,0,0-.4-.043,1.332,1.332,0,0,0-.392.078c-.1.036-.153.064-.157.061a.516.516,0,0,1,.146-.086,1.136,1.136,0,0,1,.4-.093,1.1,1.1,0,0,1,.406.057A.424.424,0,0,1,68.068,144.436Z" transform="translate(-57.878 -130.023)" fill="#455a64"/>
      <path id="Path_1441" data-name="Path 1441" d="M67.7,142.692s-.424.025-.944.032-.944,0-.944,0,.42-.025.944-.036S67.7,142.681,67.7,142.692Z" transform="translate(-57.137 -128.977)" fill="#455a64"/>
      <path id="Path_1442" data-name="Path 1442" d="M67.858,143.49a1.039,1.039,0,0,1-.232.029c-.143,0-.356.021-.556.029s-.417,0-.559,0a1.154,1.154,0,0,1-.232,0h1.347A1.979,1.979,0,0,1,67.858,143.49Z" transform="translate(-57.44 -129.497)" fill="#455a64"/>
      <path id="Path_1443" data-name="Path 1443" d="M60.1,119.759c-.043.032-.21-.118-.381-.331s-.271-.428-.232-.428a.95.95,0,0,1,.378.331C60.03,119.549,60.137,119.713,60.1,119.759Z" transform="translate(-53.06 -113.732)" fill="#263238"/>
      <path id="Path_1444" data-name="Path 1444" d="M66.947,115.338a4.8,4.8,0,0,1-.178-1.838,2.312,2.312,0,0,1,.178.912A2.255,2.255,0,0,1,66.947,115.338Z" transform="translate(-57.726 -110.191)" fill="#263238"/>
      <path id="Path_1445" data-name="Path 1445" d="M73.079,117.933c.043.029-.025.207-.15.392s-.26.317-.3.289.025-.2.15-.392S73.037,117.9,73.079,117.933Z" transform="translate(-61.517 -113.042)" fill="#263238"/>
    </g>
    <g id="freepik--Line--inject-29" transform="translate(84.891 47.855)">
      <path id="Path_1446" data-name="Path 1446" d="M252.069,103.3a2.195,2.195,0,0,0-1.692-.5l-4.421-.064a3.235,3.235,0,0,1-1.942-.531,3.135,3.135,0,0,1-1.218-1.56l-.178-.574c-.356-1.154-.734-2.348-1.183-3.481a17.883,17.883,0,0,0-.884-1.931c-.16-.31-.356-.606-.534-.908s-.381-.6-.57-.876a25.65,25.65,0,0,0-12.33-9.619,29.865,29.865,0,0,0-13.947-1.468,32.481,32.481,0,0,0-6.181,1.425l-1.425.509c-.3.118-.595.239-.884.356l-.477.2a20.262,20.262,0,0,0-2.533,1.3,18.1,18.1,0,0,0-4.058,3.349,17.078,17.078,0,0,0-1.489,1.906c-.378.566-.748,1.179-1.165,1.931-.531.955-1,1.856-1.446,2.729l-.427.827-.3.577a18.88,18.88,0,0,1-1.35,2.312,7.242,7.242,0,0,1-3.47,2.793,3.4,3.4,0,0,1-.481.143l-.153.036-.207.036a2.327,2.327,0,0,1-.274.036l-.406.032a.134.134,0,0,0,.011.267h.41a3.068,3.068,0,0,0,.31-.039l.21-.032.157-.036a3.527,3.527,0,0,0,.52-.146,7.46,7.46,0,0,0,3.634-2.879,18.593,18.593,0,0,0,1.389-2.355c.1-.185.2-.378.3-.574.146-.274.292-.556.442-.841.449-.866.912-1.756,1.425-2.7.417-.741.784-1.347,1.154-1.9a16.783,16.783,0,0,1,1.464-1.86,17.628,17.628,0,0,1,4.011-3.306,19.725,19.725,0,0,1,2.494-1.275l.474-.2c.289-.121.577-.242.869-.356l1.4-.5a32.22,32.22,0,0,1,6.106-1.382,29.5,29.5,0,0,1,13.751,1.464,25.262,25.262,0,0,1,12.113,9.48c.175.257.374.552.556.862s.356.584.524.883a17.816,17.816,0,0,1,.859,1.888c.442,1.115.794,2.248,1.169,3.449l.185.584a3.562,3.562,0,0,0,1.386,1.781,3.669,3.669,0,0,0,2.191.609l4.446.064a1.8,1.8,0,0,1,1.361.381,1.707,1.707,0,0,1,.417,1.357l-.021.588c0,.356-.025.713-.046,1.069-.018.2-.032.4-.05.6-.028.356-.057.713-.1,1.069a41.622,41.622,0,0,1-1.315,6.676,48.3,48.3,0,0,1-5.786,12.8,42.322,42.322,0,0,1-5.073,6.541,29.676,29.676,0,0,1-3,2.754,30.216,30.216,0,0,1-3.317,2.276,38.577,38.577,0,0,1-7.235,3.206l-.513.167c-.442.146-.9.3-1.35.427l-.933.281a3.737,3.737,0,0,0-.941.417,3.406,3.406,0,0,0-1.318,1.55,3.31,3.31,0,0,0-.249,1,4.426,4.426,0,0,0,0,.688v.289c0,7.282-.167,14.15-.331,20.794-.064,2.615-.128,5.169-.178,7.649a7.186,7.186,0,0,0,.167,1.66,2.693,2.693,0,0,0,.812,1.5,1.607,1.607,0,0,0,1.706.157,1.952,1.952,0,0,0,.67-.542,2.521,2.521,0,0,0,.406-.734,8.475,8.475,0,0,0,.374-2.69v-.388c.021-.962,0-1.913,0-2.85v-3.117a14.637,14.637,0,0,1,.214-2.583,1.578,1.578,0,0,1,.21-.545,1.315,1.315,0,0,1,.47-.331,1.2,1.2,0,0,1,1.069-.025,1.261,1.261,0,0,1,.456.987,7.916,7.916,0,0,1,0,.873v.378l-.207,16.573a5.248,5.248,0,0,0,0,1.179,1.959,1.959,0,0,0,.413,1.087.937.937,0,0,0,.549.292c.182.021.356.043.506.046.321.018.631.025.951.025h.217c1.044,0,1.945-.029,2.679-.053l2.02-.086c.42-.021.638-.039.638-.039a.132.132,0,0,0,.121-.139.146.146,0,0,0-.135-.128s-.214,0-.634.021l-2.091.064c-.766.021-1.717.046-2.814.036-.324,0-.62,0-.926-.028h-.15a.909.909,0,0,1-.677-.221,1.567,1.567,0,0,1-.328-.9,4.8,4.8,0,0,1,.018-1.126l.253-16.584v-.374a7.961,7.961,0,0,0,0-.919,2.415,2.415,0,0,0-.16-.68,1.19,1.19,0,0,0-.474-.595,1.218,1.218,0,0,0-.745-.189,2.138,2.138,0,0,0-.712.182,1.642,1.642,0,0,0-.62.449,1.856,1.856,0,0,0-.289.713,15.146,15.146,0,0,0-.228,2.629v.178c-.018.866,0,1.721,0,2.629v3.534a8.211,8.211,0,0,1-.356,2.583,1.706,1.706,0,0,1-.884,1.03,1.19,1.19,0,0,1-1.265-.1,2.358,2.358,0,0,1-.666-1.272,6.713,6.713,0,0,1-.153-1.557c.05-2.426.114-4.92.178-7.481.171-6.7.356-13.623.356-20.976v-.937a2.85,2.85,0,0,1,.217-.862,2.935,2.935,0,0,1,1.147-1.347,3.12,3.12,0,0,1,.83-.356l.933-.281c.456-.135.919-.285,1.364-.431l.509-.167a39.189,39.189,0,0,0,7.332-3.217,31.209,31.209,0,0,0,3.37-2.316,30.66,30.66,0,0,0,3.042-2.793,42.752,42.752,0,0,0,5.126-6.608,48.835,48.835,0,0,0,5.839-12.928,42.037,42.037,0,0,0,1.329-6.747c.039-.356.068-.712.1-1.069,0-.2.032-.4.05-.6.021-.356.036-.713.046-1.069l.021-.591a2.138,2.138,0,0,0-.559-1.742Z" transform="translate(-186.319 -81.529)" fill="#455a64"/>
    </g>
  </g>
</svg>
