<svg xmlns="http://www.w3.org/2000/svg" xmlns:xlink="http://www.w3.org/1999/xlink" width="154.793" height="169.008" viewBox="0 0 154.793 169.008">
  <defs>
    <clipPath id="clip-path">
      <path id="Path_992" data-name="Path 992" d="M235.953,331.346l.03-3.565L191.62,317l-77.25,25.849v3.712a.756.756,0,0,0,.17.491,1.148,1.148,0,0,0,.509.343l43.429,17.924a4.711,4.711,0,0,0,1.1.283,7.625,7.625,0,0,0,2.539-.065,5.064,5.064,0,0,0,1.113-.343l72.2-32.978a.722.722,0,0,0,.365-.287A.869.869,0,0,0,235.953,331.346Z" transform="translate(-114.37 -317)" fill="#fff" stroke="#263238" stroke-miterlimit="10" stroke-width="1"/>
    </clipPath>
    <clipPath id="clip-path-2">
      <circle id="Ellipse_80" data-name="Ellipse 80" cx="47.241" cy="47.241" r="47.241" transform="translate(0 66.809) rotate(-45)" fill="#fff" stroke="#263238" stroke-miterlimit="10" stroke-width="1"/>
    </clipPath>
    <clipPath id="clip-path-3">
      <path id="Path_1004" data-name="Path 1004" d="M216.8,113.356l4.486,2.017,1.23,2.017,2.021.787.222,2.13-.783,1.235-1.569.335-3.365-1.348v-.435l1.9-.783-.674-2.356-3.043-1.122-1.343-1.791Zm28.257,51.8-3.586-1.456-4.386-1.569h-3.478l-3.239-.674-3.591.787-2.017.109h-1.235l-2.352,1.348-2.243.9-3.043-1.9.783-3.139-1.9-.787h-2.243l-.335-1.009.222-2.017-.783-1.122-1.569.222-.435,1.122-1.9.113-1.682-2.008-.687-2.7,1.682-3.139,3.252.222.9.787h1.348l1.682-1.009,1.456.435,2.017,3.478.787-.109-.226-2.582-.669-1.343.222-2.13,4.147-1.8.561-4.147,1.8-1.456L225.757,136l1.122-.226,2.578-1.682.113-.9-1.8.113-.335-.9h-1.222l-1.9.435.9-1.456,3.913-1.122.9-1.009,1.569,2.465,1.013,1.013,1.569-.435-.674-1.456-2.356-1.682-2.691-3.043-2.8-1.908-2.691-.435-1.343-1.343-1.8-.435-.222.435-.226,3.252.435,1.122-.974,3.6-2.243-1.8.339-1.569-2.356-1.122-1.009-1.23.561-2.8,3.252-2.356.226-2.691-1.235.113-.787-1.009-.335-1.682-.787-.113-.435,1.8-1.23.226-.561-3.912-.9-.561-1.569-.674-1.8.882,2.239,2.134.435,1.9-4.034-3.043-2.8-3.043-.222-3.043-2.917-.9-2.261,1.5a16.878,16.878,0,0,1-1.682.9,18.472,18.472,0,0,1-2.691.435l-.435,1.908-2.578.113.226,1.23,4.147.674,2.13,2.356v3.912l-1.235,3.478.226,3.7-3.139,5.495-.674,8.181L193.7,144.5l1.456,3.586,1.682.226-.561-1.8-.9-1.348-.561-2.465,1.009-.226,1.569,4.039,1.126,3.63v2.917l2.13,2.578,3.826,2.765,5.83,1.569,1.8,1.682,1.343,1.791,2.017,1.235,2.469.674,2.465-.113s-.113,1.122-.113,1.682-1.569,2.465-1.569,2.465l-1.23,2.243.9,2.465,2.465,1.013,3.478,3.586,1.569.674v1.678l.2.787a47.067,47.067,0,0,0,23.514-11.072l.061-.813,3.043-5.495-1.456-1.009Zm11.664-44.285-1.235-2.13-1.569-2.469-.435-3.36,2.017.335.113-1.122-1.461-.113,1.235-.561,1.348-.783v-1.122l-1.348-1.8-.287-2.413A47.285,47.285,0,0,0,199.639,91.9l2.587,1.83-1.569,2.021-2.13.435-.226,3.043-.9.335-1.122,1.235.113,2.017,1.9.226-.774,1.9h1.9l3.252-4.147L203.021,99l3.139-.226.783-1.348,3.252-.335.339-1.9,2.352-.113a11.759,11.759,0,0,1,2.021-.9,13.78,13.78,0,0,1,1.9.556l1.682,1.348h2.352l2.021-1.235,2.578.226a2.778,2.778,0,0,0,1.235.435,9.85,9.85,0,0,0,2.239-.787l3.252,2.021,1.348,1.009v1.682l1.682.222.561-1.009,1.456.674-.113.9-3.365.9,1.908,2.465,4.034,2.243,1.682,2.243,2.469.222.561-1.122.9-.222-2.917-2.243-1.808-.2,1.456-.435-1.348-1.9,1.908-.113,2.465,1.343.561,2.691,1.235,1.461,1.009,3.252,2.465,1.791v3.7l2.582,1.682-.113,1.235-.339,1.456.674,2.017.226,1.013,1.9.335.9-1.908Zm1.456-11.3v.643L257.618,112l.335,1.569,1.235.435v2.13l-1.348-.561-.322,6.077-1.343,2.469.9,3.139,1.456,1.343v6.056l1.456,4.708,1.574,3.591,2.578.669.9-2.243.365-.283a47.66,47.66,0,0,0,.365-5.873,47.011,47.011,0,0,0-7.586-25.653Zm-25.905-.713-7.39-3.252-3.252.113-.787,2.13-1.343-1.456-2.465.561-.226,3.7,2.017,1.456,1.456-2.13,1.682,1.682,3.478,3.043.674,3.252,2.913,3.7,4.708-.783-.109-1.682-1.009-1.908L232.4,112.8l1.122-1.908Zm6.056,2.469-1.682-.435-1.456,1.235.783,3.252h1.461Zm10.433,2.13-3.817-1.991-.787-1.343-.9.335.783,2.243.674,2.917,1.682.669.335-.435-1.009-1.682,2.917,1.122Zm-32.739,40.473-.435.435,3.365,1.009,1.343,1.569,2.134.226.782-1.235-2.578-.435Zm10,2.13-2.356.674.339.9h2.913l.561-.9-1.009.113Z" transform="translate(-191.01 -87.974)" fill="#f2f2f2" stroke="#263238" stroke-miterlimit="10" stroke-width="1"/>
    </clipPath>
  </defs>
  <g id="Online_world-bro_1_" data-name="Online world-bro (1)" transform="translate(-77.6 -42.274)">
    <g id="freepik--background-simple--inject-134" transform="translate(77.601 59.346)">
      <path id="Path_987" data-name="Path 987" d="M231.579,159.251c1.787-11.737.509-23.823-2.608-35.212-2.8-10.22-6.33-20.714-14.546-27.892-9.955-8.694-22.384-9.829-35-8.355-24.966,2.908-32.1-7.786-50.567-7.138S94.185,89.078,89,104.958s2.917,32.409-.974,41.8-14.907,18.8-8.425,32.409,20.741,24.305,53.819,26.9,61.9,3.891,80.693-13.285C224.275,183.474,229.675,171.745,231.579,159.251Z" transform="translate(-77.601 -80.625)" fill="#f2f2f2"/>
      <path id="Path_988" data-name="Path 988" d="M231.579,159.251c1.787-11.737.509-23.823-2.608-35.212-2.8-10.22-6.33-20.714-14.546-27.892-9.955-8.694-22.384-9.829-35-8.355-24.966,2.908-32.1-7.786-50.567-7.138S94.185,89.078,89,104.958s2.917,32.409-.974,41.8-14.907,18.8-8.425,32.409,20.741,24.305,53.819,26.9,61.9,3.891,80.693-13.285C224.275,183.474,229.675,171.745,231.579,159.251Z" transform="translate(-77.601 -80.625)" fill="#fff" opacity="0.7"/>
    </g>
    <g id="freepik--Device--inject-134" transform="translate(93.401 161.428)">
      <path id="Path_989" data-name="Path 989" d="M235.953,331.346l.03-3.565L191.62,317l-77.25,25.849v3.712a.756.756,0,0,0,.17.491,1.148,1.148,0,0,0,.509.343l43.429,17.924a4.711,4.711,0,0,0,1.1.283,7.625,7.625,0,0,0,2.539-.065,5.064,5.064,0,0,0,1.113-.343l72.2-32.978a.722.722,0,0,0,.365-.287A.869.869,0,0,0,235.953,331.346Z" transform="translate(-114.186 -316.325)" fill="#fff"/>
      <g id="Group_163" data-name="Group 163" transform="translate(0.184 0.675)" clip-path="url(#clip-path)">
        <path id="Path_990" data-name="Path 990" d="M297.382,331.937a.87.87,0,0,0,.152-.578l.03-3.565L253.2,317,223.31,327v38.586a1.978,1.978,0,0,0,.391-.061,5.059,5.059,0,0,0,1.113-.343l72.2-32.965a.721.721,0,0,0,.365-.278Z" transform="translate(-175.951 -317)" opacity="0.2"/>
        <path id="Path_991" data-name="Path 991" d="M218.593,421.346V415.36H217.08v5.8A4.782,4.782,0,0,0,218.593,421.346Z" transform="translate(-172.43 -372.601)" opacity="0.2"/>
      </g>
      <path id="Path_993" data-name="Path 993" d="M235.953,331.346l.03-3.565L191.62,317l-77.25,25.849v3.712a.756.756,0,0,0,.17.491,1.148,1.148,0,0,0,.509.343l43.429,17.924a4.711,4.711,0,0,0,1.1.283,7.625,7.625,0,0,0,2.539-.065,5.064,5.064,0,0,0,1.113-.343l72.2-32.978a.722.722,0,0,0,.365-.287A.869.869,0,0,0,235.953,331.346Z" transform="translate(-114.186 -316.325)" fill="none" stroke="#263238" stroke-miterlimit="10" stroke-width="1"/>
      <path id="Path_994" data-name="Path 994" d="M332.963,329.682l-5.682-1.439a1.5,1.5,0,0,0-.256-.043h-.278a2.439,2.439,0,0,0-.261.022,1.272,1.272,0,0,0-.213.052.287.287,0,0,0-.126.078.087.087,0,0,0,0,.083.191.191,0,0,0,.091.083.681.681,0,0,0,.191.07l5.682,1.452a2.4,2.4,0,0,0,.265.043h.283a2.492,2.492,0,0,0,.265-.026,1.1,1.1,0,0,0,.213-.052.326.326,0,0,0,.122-.078.083.083,0,0,0,0-.087.235.235,0,0,0-.1-.087,1,1,0,0,0-.2-.07" transform="translate(-233.892 -322.656)" fill="#fff"/>
      <path id="Path_995" data-name="Path 995" d="M243.564,329.78l-9.586-2.443H231.9a3.746,3.746,0,0,1-.5-.043c-.161-.022-.326-.043-.483-.07s-.3-.061-.435-.1l-16.715-4.291-.339-.1c-.1-.039-.2-.078-.278-.117a1.569,1.569,0,0,1-.209-.13.628.628,0,0,1-.13-.135l-.335-.487-8.581-2.174L138.54,342.213l41.246,15.793,63.778-28.226" transform="translate(-127.849 -317.845)" fill="#f2f2f2" stroke="#fff" stroke-miterlimit="10" stroke-width="3"/>
      <path id="Path_996" data-name="Path 996" d="M235.87,326.612a1.074,1.074,0,0,0-.4-.3,3.4,3.4,0,0,0-.743-.261l-41.859-10.433a5.894,5.894,0,0,0-.8-.135,8.293,8.293,0,0,0-.869-.03,6.522,6.522,0,0,0-.843.065,4.135,4.135,0,0,0-.713.161L115.13,340.949a3.177,3.177,0,0,0-.778.37.921.921,0,0,0-.374.409.4.4,0,0,0,.052.4,1.126,1.126,0,0,0,.5.348l43.707,17.7a4.709,4.709,0,0,0,1.1.287,7.625,7.625,0,0,0,2.539-.065,5.062,5.062,0,0,0,1.113-.343L235.54,327.2a.76.76,0,0,0,.37-.291A.3.3,0,0,0,235.87,326.612Zm-69.99,29-41.242-15.793,65.347-22.558,8.581,2.174.335.487a.625.625,0,0,0,.13.135,1.565,1.565,0,0,0,.209.13c.083.039.174.078.278.117l.339.1,16.706,4.308c.139.035.287.07.435.1s.317.052.483.07.33.035.5.043.339,0,.513,0h1.569l9.586,2.443ZM206.2,321.13a.287.287,0,0,1,.126-.078,1.274,1.274,0,0,1,.213-.052,2.438,2.438,0,0,1,.261-.022h.278a1.5,1.5,0,0,1,.256.043l5.682,1.439a1,1,0,0,1,.2.07.235.235,0,0,1,.1.087.083.083,0,0,1,0,.087.326.326,0,0,1-.122.078,1.091,1.091,0,0,1-.213.052,2.483,2.483,0,0,1-.265.026h-.283a2.412,2.412,0,0,1-.265-.043l-5.682-1.452a.684.684,0,0,1-.191-.07.191.191,0,0,1-.091-.083.087.087,0,0,1,.009-.083Zm-63.243,27.448a1.206,1.206,0,0,1-.339.191,2.612,2.612,0,0,1-.491.13,3.242,3.242,0,0,1-.543.056,3.477,3.477,0,0,1-.53-.026,2.083,2.083,0,0,1-.435-.113.774.774,0,0,1-.283-.178.257.257,0,0,1-.07-.2.365.365,0,0,1,.143-.209,1.1,1.1,0,0,1,.339-.191,2.613,2.613,0,0,1,.491-.13,3.658,3.658,0,0,1,.539-.052,3.475,3.475,0,0,1,.526.026,2.114,2.114,0,0,1,.435.109.735.735,0,0,1,.283.174.235.235,0,0,1,.074.2A.356.356,0,0,1,142.953,348.578Z" transform="translate(-113.946 -315.447)" fill="#263238"/>
      <path id="Path_997" data-name="Path 997" d="M176.942,390.123a2.112,2.112,0,0,0-.435-.109,3.483,3.483,0,0,0-.526-.026,3.646,3.646,0,0,0-.539.052,2.609,2.609,0,0,0-.491.13,1.1,1.1,0,0,0-.339.191.365.365,0,0,0-.143.209.257.257,0,0,0,.07.2.775.775,0,0,0,.283.178,2.081,2.081,0,0,0,.435.113,3.469,3.469,0,0,0,.53.026,3.248,3.248,0,0,0,.543-.057,2.608,2.608,0,0,0,.491-.13,1.207,1.207,0,0,0,.339-.191.357.357,0,0,0,.135-.213.235.235,0,0,0-.074-.2.735.735,0,0,0-.283-.174" transform="translate(-148.157 -357.583)" fill="#fff"/>
    </g>
    <g id="freepik--Lines--inject-134" transform="translate(89.412 137.237)">
      <line id="Line_2" data-name="Line 2" x2="1.243" y2="2.104" transform="translate(18.267 37.882)" fill="none" stroke="#263238" stroke-miterlimit="10" stroke-width="1"/>
      <line id="Line_3" data-name="Line 3" x2="16.863" y2="28.518" transform="translate(0 6.986)" fill="none" stroke="#263238" stroke-miterlimit="10" stroke-width="1"/>
      <line id="Line_4" data-name="Line 4" x2="0.709" y2="1.695" transform="translate(32.53 31.787)" fill="none" stroke="#263238" stroke-miterlimit="10" stroke-width="1"/>
      <line id="Line_5" data-name="Line 5" x2="4.039" y2="9.66" transform="translate(27.7 20.232)" fill="none" stroke="#263238" stroke-miterlimit="10" stroke-width="1"/>
      <line id="Line_6" data-name="Line 6" x1="8.886" y2="21.832" transform="translate(102.99 5.386)" fill="none" stroke="#263238" stroke-miterlimit="10" stroke-width="1"/>
      <line id="Line_7" data-name="Line 7" x1="1.1" y2="2.691" transform="translate(112.971)" fill="none" stroke="#263238" stroke-miterlimit="10" stroke-width="1"/>
      <line id="Line_8" data-name="Line 8" x1="1.939" y2="2.134" transform="translate(117.062 26.77)" fill="none" stroke="#263238" stroke-miterlimit="10" stroke-width="1"/>
      <line id="Line_9" data-name="Line 9" x1="10.572" y2="11.629" transform="translate(120.94 13.007)" fill="none" stroke="#263238" stroke-miterlimit="10" stroke-width="1"/>
      <line id="Line_10" data-name="Line 10" x2="7.225" y2="13.968" transform="translate(24.81 34.686)" fill="none" stroke="#263238" stroke-miterlimit="10" stroke-width="1"/>
      <line id="Line_11" data-name="Line 11" x1="7.951" y2="10.838" transform="translate(105.498 26.014)" fill="none" stroke="#263238" stroke-miterlimit="10" stroke-width="1"/>
      <line id="Line_12" data-name="Line 12" x2="1.926" y2="9.633" transform="translate(62.626 26.014)" fill="none" stroke="#263238" stroke-miterlimit="10" stroke-width="1"/>
    </g>
    <g id="freepik--earth-globe--inject-134" transform="translate(87.584 42.981)">
      <circle id="Ellipse_75" data-name="Ellipse 75" cx="4.73" cy="4.73" r="4.73" transform="translate(24.794 23.913)" fill="#fff" stroke="#fff" stroke-miterlimit="10" stroke-width="0.5"/>
      <path id="Path_998" data-name="Path 998" d="M166.663,108.13h-3.082a1.091,1.091,0,0,0-1.091,1.091v2.608a4.243,4.243,0,0,0,5.264-.039v-2.547a1.091,1.091,0,0,0-1.091-1.113Z" transform="translate(-135.571 -79.808)" fill="#f2f2f2"/>
      <circle id="Ellipse_76" data-name="Ellipse 76" cx="1.569" cy="1.569" r="1.569" transform="translate(27.928 24.709)" fill="#f2f2f2"/>
      <circle id="Ellipse_77" data-name="Ellipse 77" cx="4.73" cy="4.73" r="4.73" transform="matrix(0.364, -0.931, 0.931, 0.364, 32.316, 115.754)" fill="#fff" stroke="#fff" stroke-miterlimit="10" stroke-width="0.5"/>
      <path id="Path_999" data-name="Path 999" d="M187.183,302.35H184.1a1.087,1.087,0,0,0-1.087,1.087v2.587a4.239,4.239,0,0,0,5.26-.039v-2.547a1.087,1.087,0,0,0-1.087-1.087Z" transform="translate(-147.17 -189.597)" fill="#f2f2f2"/>
      <path id="Path_1000" data-name="Path 1000" d="M186.9,297.169a1.569,1.569,0,1,0-1.569-1.569A1.569,1.569,0,0,0,186.9,297.169Z" transform="translate(-148.482 -184.894)" fill="#f2f2f2"/>
      <circle id="Ellipse_78" data-name="Ellipse 78" cx="47.241" cy="47.241" r="47.241" transform="translate(0 66.809) rotate(-45)" fill="#fff"/>
      <g id="Group_165" data-name="Group 165" transform="translate(0 0)" clip-path="url(#clip-path-2)">
        <circle id="Ellipse_79" data-name="Ellipse 79" cx="47.241" cy="47.241" r="47.241" transform="translate(0 66.809) rotate(-45)" opacity="0.18"/>
        <path id="Path_1001" data-name="Path 1001" d="M192.819,199.253a47.258,47.258,0,0,1-45.271-33.709,47.241,47.241,0,1,0,90.543,0A47.263,47.263,0,0,1,192.819,199.253Z" transform="translate(-126.009 -112.261)" fill="#fff" opacity="0.86"/>
        <path id="Path_1002" data-name="Path 1002" d="M216.8,113.356l4.486,2.017,1.23,2.017,2.021.787.222,2.13-.783,1.235-1.569.335-3.365-1.348v-.435l1.9-.783-.674-2.356-3.043-1.122-1.343-1.791Zm28.257,51.8-3.586-1.456-4.386-1.569h-3.478l-3.239-.674-3.591.787-2.017.109h-1.235l-2.352,1.348-2.243.9-3.043-1.9.783-3.139-1.9-.787h-2.243l-.335-1.009.222-2.017-.783-1.122-1.569.222-.435,1.122-1.9.113-1.682-2.008-.687-2.7,1.682-3.139,3.252.222.9.787h1.348l1.682-1.009,1.456.435,2.017,3.478.787-.109-.226-2.582-.669-1.343.222-2.13,4.147-1.8.561-4.147,1.8-1.456L225.757,136l1.122-.226,2.578-1.682.113-.9-1.8.113-.335-.9h-1.222l-1.9.435.9-1.456,3.913-1.122.9-1.009,1.569,2.465,1.013,1.013,1.569-.435-.674-1.456-2.356-1.682-2.691-3.043-2.8-1.908-2.691-.435-1.343-1.343-1.8-.435-.222.435-.226,3.252.435,1.122-.974,3.6-2.243-1.8.339-1.569-2.356-1.122-1.009-1.23.561-2.8,3.252-2.356.226-2.691-1.235.113-.787-1.009-.335-1.682-.787-.113-.435,1.8-1.23.226-.561-3.912-.9-.561-1.569-.674-1.8.882,2.239,2.134.435,1.9-4.034-3.043-2.8-3.043-.222-3.043-2.917-.9-2.261,1.5a16.878,16.878,0,0,1-1.682.9,18.472,18.472,0,0,1-2.691.435l-.435,1.908-2.578.113.226,1.23,4.147.674,2.13,2.356v3.912l-1.235,3.478.226,3.7-3.139,5.495-.674,8.181L193.7,144.5l1.456,3.586,1.682.226-.561-1.8-.9-1.348-.561-2.465,1.009-.226,1.569,4.039,1.126,3.63v2.917l2.13,2.578,3.826,2.765,5.83,1.569,1.8,1.682,1.343,1.791,2.017,1.235,2.469.674,2.465-.113s-.113,1.122-.113,1.682-1.569,2.465-1.569,2.465l-1.23,2.243.9,2.465,2.465,1.013,3.478,3.586,1.569.674v1.678l.2.787a47.067,47.067,0,0,0,23.514-11.072l.061-.813,3.043-5.495-1.456-1.009Zm11.664-44.285-1.235-2.13-1.569-2.469-.435-3.36,2.017.335.113-1.122-1.461-.113,1.235-.561,1.348-.783v-1.122l-1.348-1.8-.287-2.413A47.285,47.285,0,0,0,199.639,91.9l2.587,1.83-1.569,2.021-2.13.435-.226,3.043-.9.335-1.122,1.235.113,2.017,1.9.226-.774,1.9h1.9l3.252-4.147L203.021,99l3.139-.226.783-1.348,3.252-.335.339-1.9,2.352-.113a11.759,11.759,0,0,1,2.021-.9,13.78,13.78,0,0,1,1.9.556l1.682,1.348h2.352l2.021-1.235,2.578.226a2.778,2.778,0,0,0,1.235.435,9.85,9.85,0,0,0,2.239-.787l3.252,2.021,1.348,1.009v1.682l1.682.222.561-1.009,1.456.674-.113.9-3.365.9,1.908,2.465,4.034,2.243,1.682,2.243,2.469.222.561-1.122.9-.222-2.917-2.243-1.808-.2,1.456-.435-1.348-1.9,1.908-.113,2.465,1.343.561,2.691,1.235,1.461,1.009,3.252,2.465,1.791v3.7l2.582,1.682-.113,1.235-.339,1.456.674,2.017.226,1.013,1.9.335.9-1.908Zm1.456-11.3v.643L257.618,112l.335,1.569,1.235.435v2.13l-1.348-.561-.322,6.077-1.343,2.469.9,3.139,1.456,1.343v6.056l1.456,4.708,1.574,3.591,2.578.669.9-2.243.365-.283a47.66,47.66,0,0,0,.365-5.873,47.011,47.011,0,0,0-7.586-25.653Zm-25.905-.713-7.39-3.252-3.252.113-.787,2.13-1.343-1.456-2.465.561-.226,3.7,2.017,1.456,1.456-2.13,1.682,1.682,3.478,3.043.674,3.252,2.913,3.7,4.708-.783-.109-1.682-1.009-1.908L232.4,112.8l1.122-1.908Zm6.056,2.469-1.682-.435-1.456,1.235.783,3.252h1.461Zm10.433,2.13-3.817-1.991-.787-1.343-.9.335.783,2.243.674,2.917,1.682.669.335-.435-1.009-1.682,2.917,1.122Zm-32.739,40.473-.435.435,3.365,1.009,1.343,1.569,2.134.226.782-1.235-2.578-.435Zm10,2.13-2.356.674.339.9h2.913l.561-.9-1.009.113Z" transform="translate(-151.692 -68.415)" fill="#f2f2f2"/>
        <g id="Group_164" data-name="Group 164" transform="translate(39.318 19.559)" clip-path="url(#clip-path-3)">
          <path id="Path_1003" data-name="Path 1003" d="M192.819,199.253a47.258,47.258,0,0,1-45.271-33.709,47.241,47.241,0,1,0,90.543,0A47.263,47.263,0,0,1,192.819,199.253Z" transform="translate(-165.327 -131.821)" fill="#fff" opacity="0.65"/>
        </g>
        <path id="Path_1005" data-name="Path 1005" d="M216.8,113.356l4.486,2.017,1.23,2.017,2.021.787.222,2.13-.783,1.235-1.569.335-3.365-1.348v-.435l1.9-.783-.674-2.356-3.043-1.122-1.343-1.791Zm28.257,51.8-3.586-1.456-4.386-1.569h-3.478l-3.239-.674-3.591.787-2.017.109h-1.235l-2.352,1.348-2.243.9-3.043-1.9.783-3.139-1.9-.787h-2.243l-.335-1.009.222-2.017-.783-1.122-1.569.222-.435,1.122-1.9.113-1.682-2.008-.687-2.7,1.682-3.139,3.252.222.9.787h1.348l1.682-1.009,1.456.435,2.017,3.478.787-.109-.226-2.582-.669-1.343.222-2.13,4.147-1.8.561-4.147,1.8-1.456L225.757,136l1.122-.226,2.578-1.682.113-.9-1.8.113-.335-.9h-1.222l-1.9.435.9-1.456,3.913-1.122.9-1.009,1.569,2.465,1.013,1.013,1.569-.435-.674-1.456-2.356-1.682-2.691-3.043-2.8-1.908-2.691-.435-1.343-1.343-1.8-.435-.222.435-.226,3.252.435,1.122-.974,3.6-2.243-1.8.339-1.569-2.356-1.122-1.009-1.23.561-2.8,3.252-2.356.226-2.691-1.235.113-.787-1.009-.335-1.682-.787-.113-.435,1.8-1.23.226-.561-3.912-.9-.561-1.569-.674-1.8.882,2.239,2.134.435,1.9-4.034-3.043-2.8-3.043-.222-3.043-2.917-.9-2.261,1.5a16.878,16.878,0,0,1-1.682.9,18.472,18.472,0,0,1-2.691.435l-.435,1.908-2.578.113.226,1.23,4.147.674,2.13,2.356v3.912l-1.235,3.478.226,3.7-3.139,5.495-.674,8.181L193.7,144.5l1.456,3.586,1.682.226-.561-1.8-.9-1.348-.561-2.465,1.009-.226,1.569,4.039,1.126,3.63v2.917l2.13,2.578,3.826,2.765,5.83,1.569,1.8,1.682,1.343,1.791,2.017,1.235,2.469.674,2.465-.113s-.113,1.122-.113,1.682-1.569,2.465-1.569,2.465l-1.23,2.243.9,2.465,2.465,1.013,3.478,3.586,1.569.674v1.678l.2.787a47.067,47.067,0,0,0,23.514-11.072l.061-.813,3.043-5.495-1.456-1.009Zm11.664-44.285-1.235-2.13-1.569-2.469-.435-3.36,2.017.335.113-1.122-1.461-.113,1.235-.561,1.348-.783v-1.122l-1.348-1.8-.287-2.413A47.285,47.285,0,0,0,199.639,91.9l2.587,1.83-1.569,2.021-2.13.435-.226,3.043-.9.335-1.122,1.235.113,2.017,1.9.226-.774,1.9h1.9l3.252-4.147L203.021,99l3.139-.226.783-1.348,3.252-.335.339-1.9,2.352-.113a11.759,11.759,0,0,1,2.021-.9,13.78,13.78,0,0,1,1.9.556l1.682,1.348h2.352l2.021-1.235,2.578.226a2.778,2.778,0,0,0,1.235.435,9.85,9.85,0,0,0,2.239-.787l3.252,2.021,1.348,1.009v1.682l1.682.222.561-1.009,1.456.674-.113.9-3.365.9,1.908,2.465,4.034,2.243,1.682,2.243,2.469.222.561-1.122.9-.222-2.917-2.243-1.808-.2,1.456-.435-1.348-1.9,1.908-.113,2.465,1.343.561,2.691,1.235,1.461,1.009,3.252,2.465,1.791v3.7l2.582,1.682-.113,1.235-.339,1.456.674,2.017.226,1.013,1.9.335.9-1.908Zm1.456-11.3v.643L257.618,112l.335,1.569,1.235.435v2.13l-1.348-.561-.322,6.077-1.343,2.469.9,3.139,1.456,1.343v6.056l1.456,4.708,1.574,3.591,2.578.669.9-2.243.365-.283a47.66,47.66,0,0,0,.365-5.873,47.011,47.011,0,0,0-7.586-25.653Zm-25.905-.713-7.39-3.252-3.252.113-.787,2.13-1.343-1.456-2.465.561-.226,3.7,2.017,1.456,1.456-2.13,1.682,1.682,3.478,3.043.674,3.252,2.913,3.7,4.708-.783-.109-1.682-1.009-1.908L232.4,112.8l1.122-1.908Zm6.056,2.469-1.682-.435-1.456,1.235.783,3.252h1.461Zm10.433,2.13-3.817-1.991-.787-1.343-.9.335.783,2.243.674,2.917,1.682.669.335-.435-1.009-1.682,2.917,1.122Zm-32.739,40.473-.435.435,3.365,1.009,1.343,1.569,2.134.226.782-1.235-2.578-.435Zm10,2.13-2.356.674.339.9h2.913l.561-.9-1.009.113Z" transform="translate(-151.692 -68.415)" fill="none" stroke="#263238" stroke-miterlimit="10" stroke-width="1"/>
      </g>
      <circle id="Ellipse_81" data-name="Ellipse 81" cx="47.241" cy="47.241" r="47.241" transform="translate(0 66.809) rotate(-45)" fill="none" stroke="#263238" stroke-miterlimit="10" stroke-width="1"/>
      <circle id="Ellipse_82" data-name="Ellipse 82" cx="4.73" cy="4.73" r="4.73" transform="translate(119.802 38.955) rotate(-9.25)" fill="#fff" stroke="#fff" stroke-miterlimit="10" stroke-width="0.5"/>
      <path id="Path_1006" data-name="Path 1006" d="M386.813,140.85h-3.087a1.087,1.087,0,0,0-1.087,1.091v2.587a4.239,4.239,0,0,0,5.26-.039v-2.547a1.087,1.087,0,0,0-1.087-1.091Z" transform="translate(-260.017 -98.304)" fill="#f2f2f2"/>
      <path id="Path_1007" data-name="Path 1007" d="M386.529,135.669a1.569,1.569,0,1,0-1.569-1.569A1.569,1.569,0,0,0,386.529,135.669Z" transform="translate(-261.328 -93.601)" fill="#f2f2f2"/>
      <circle id="Ellipse_83" data-name="Ellipse 83" cx="4.73" cy="4.73" r="4.73" transform="translate(87.167 19.153)" fill="#fff" stroke="#fff" stroke-miterlimit="10" stroke-width="0.5"/>
      <path id="Path_1008" data-name="Path 1008" d="M310.156,97.18h-3.082A1.091,1.091,0,0,0,306,98.271v2.608a4.243,4.243,0,0,0,5.264-.039V98.271a1.091,1.091,0,0,0-1.109-1.091Z" transform="translate(-216.694 -73.618)" fill="#f2f2f2"/>
      <circle id="Ellipse_84" data-name="Ellipse 84" cx="1.569" cy="1.569" r="1.569" transform="translate(90.297 19.944)" fill="#f2f2f2"/>
      <circle id="Ellipse_85" data-name="Ellipse 85" cx="4.73" cy="4.73" r="4.73" transform="translate(0.902 48.741) rotate(-9.25)" fill="#fff" stroke="#fff" stroke-miterlimit="10" stroke-width="0.5"/>
      <path id="Path_1009" data-name="Path 1009" d="M113.313,163.35h-3.087a1.087,1.087,0,0,0-1.087,1.091v2.587a4.239,4.239,0,0,0,5.26-.039v-2.547a1.087,1.087,0,0,0-1.087-1.091Z" transform="translate(-105.413 -111.023)" fill="#f2f2f2"/>
      <path id="Path_1010" data-name="Path 1010" d="M113.029,158.169a1.569,1.569,0,1,0-1.569-1.569A1.569,1.569,0,0,0,113.029,158.169Z" transform="translate(-106.724 -106.32)" fill="#f2f2f2"/>
      <circle id="Ellipse_86" data-name="Ellipse 86" cx="4.73" cy="4.73" r="4.73" transform="translate(3.949 78.517) rotate(-9.25)" fill="#fff" stroke="#fff" stroke-miterlimit="10" stroke-width="0.5"/>
      <path id="Path_1011" data-name="Path 1011" d="M120.313,231.85h-3.087a1.087,1.087,0,0,0-1.087,1.091v2.587a4.239,4.239,0,0,0,5.26-.039v-2.547a1.087,1.087,0,0,0-1.087-1.091Z" transform="translate(-109.37 -149.745)" fill="#f2f2f2"/>
      <path id="Path_1012" data-name="Path 1012" d="M120.029,226.669a1.569,1.569,0,1,0-1.569-1.569A1.569,1.569,0,0,0,120.029,226.669Z" transform="translate(-110.681 -145.042)" fill="#f2f2f2"/>
      <circle id="Ellipse_87" data-name="Ellipse 87" cx="4.73" cy="4.73" r="4.73" transform="matrix(0.366, -0.93, 0.93, 0.366, 22.529, 61.181)" fill="#fff" stroke="#fff" stroke-miterlimit="10" stroke-width="0.5"/>
      <path id="Path_1013" data-name="Path 1013" d="M164.678,176.85h-3.091a1.087,1.087,0,0,0-1.087,1.087v2.608a4.239,4.239,0,0,0,5.26-.039v-2.547a1.087,1.087,0,0,0-1.082-1.109Z" transform="translate(-134.446 -118.654)" fill="#f2f2f2"/>
      <path id="Path_1014" data-name="Path 1014" d="M164.4,171.669a1.569,1.569,0,1,0-1.569-1.569A1.569,1.569,0,0,0,164.4,171.669Z" transform="translate(-135.763 -113.951)" fill="#f2f2f2"/>
      <circle id="Ellipse_88" data-name="Ellipse 88" cx="4.73" cy="4.73" r="4.73" transform="translate(55.133 100.19)" fill="#fff" stroke="#fff" stroke-miterlimit="10" stroke-width="0.5"/>
      <path id="Path_1015" data-name="Path 1015" d="M236.453,283.6h-3.082a1.091,1.091,0,0,0-1.091,1.091v2.587a4.243,4.243,0,0,0,5.264-.039v-2.547a1.091,1.091,0,0,0-1.091-1.091Z" transform="translate(-175.021 -178.998)" fill="#f2f2f2"/>
      <circle id="Ellipse_89" data-name="Ellipse 89" cx="1.569" cy="1.569" r="1.569" transform="translate(58.267 100.985)" fill="#f2f2f2"/>
      <circle id="Ellipse_90" data-name="Ellipse 90" cx="4.73" cy="4.73" r="4.73" transform="translate(89.141 109.284)" fill="#fff" stroke="#fff" stroke-miterlimit="10" stroke-width="0.5"/>
      <path id="Path_1016" data-name="Path 1016" d="M314.668,304.52h-3.086a1.091,1.091,0,0,0-1.091,1.087v2.608a4.243,4.243,0,0,0,5.264-.039V305.6A1.087,1.087,0,0,0,314.668,304.52Z" transform="translate(-219.232 -190.823)" fill="#f2f2f2"/>
      <circle id="Ellipse_91" data-name="Ellipse 91" cx="1.569" cy="1.569" r="1.569" transform="translate(92.271 110.08)" fill="#f2f2f2"/>
      <circle id="Ellipse_92" data-name="Ellipse 92" cx="4.73" cy="4.73" r="4.73" transform="translate(111.711 89.577) rotate(-69.82)" fill="#fff" stroke="#fff" stroke-miterlimit="10" stroke-width="0.5"/>
      <path id="Path_1017" data-name="Path 1017" d="M369.678,241.85h-3.091a1.087,1.087,0,0,0-1.087,1.087v2.608a4.239,4.239,0,0,0,5.26-.039v-2.547a1.087,1.087,0,0,0-1.082-1.109Z" transform="translate(-250.328 -155.397)" fill="#f2f2f2"/>
      <path id="Path_1018" data-name="Path 1018" d="M369.4,236.669a1.569,1.569,0,1,0-1.569-1.569A1.569,1.569,0,0,0,369.4,236.669Z" transform="translate(-251.645 -150.694)" fill="#f2f2f2"/>
      <path id="Path_1019" data-name="Path 1019" d="M226.9,143.255c6.677,5.412,10.638,12.172,10.638,19.467,0,17.824-23.549,32.282-52.6,32.282s-52.6-14.454-52.6-32.282c0-7.8,4.508-14.95,12.011-20.532" transform="translate(-118.522 -99.062)" fill="none" stroke="#fff" stroke-miterlimit="10" stroke-width="0.5"/>
      <path id="Path_1020" data-name="Path 1020" d="M184,95.134c4.734-7.76,11.39-12.933,19.276-14.085,18.528-2.669,36.834,18.028,40.894,46.228s-7.664,53.223-26.188,55.892c-8.434,1.213-16.824-2.413-23.844-9.386" transform="translate(-147.73 -64.369)" fill="none" stroke="#fff" stroke-miterlimit="10" stroke-width="0.5"/>
      <ellipse id="Ellipse_93" data-name="Ellipse 93" cx="21.384" cy="52.893" rx="21.384" ry="52.893" transform="translate(5.989 62.284) rotate(-58.58)" fill="none" stroke="#fff" stroke-miterlimit="10" stroke-width="0.5"/>
      <ellipse id="Ellipse_94" data-name="Ellipse 94" cx="54.279" cy="21.384" rx="54.279" ry="21.384" transform="translate(8.678 79.289) rotate(-31.42)" fill="none" stroke="#fff" stroke-miterlimit="10" stroke-width="0.5"/>
      <path id="Path_1021" data-name="Path 1021" d="M301.809,126.869a.869.869,0,1,0-.869.869A.869.869,0,0,0,301.809,126.869Z" transform="translate(-213.342 -89.91)" fill="#fff" stroke="#fff" stroke-miterlimit="10" stroke-width="0.5"/>
      <path id="Path_1022" data-name="Path 1022" d="M323.809,208.739a.869.869,0,1,0-.869.869A.869.869,0,0,0,323.809,208.739Z" transform="translate(-225.778 -136.189)" fill="#fff" stroke="#fff" stroke-miterlimit="10" stroke-width="0.5"/>
      <path id="Path_1023" data-name="Path 1023" d="M319.409,250.329a.869.869,0,1,0-.869.869A.869.869,0,0,0,319.409,250.329Z" transform="translate(-223.29 -159.699)" fill="#fff" stroke="#fff" stroke-miterlimit="10" stroke-width="0.5"/>
      <path id="Path_1024" data-name="Path 1024" d="M306.649,282.009a.869.869,0,1,0-.869.869A.869.869,0,0,0,306.649,282.009Z" transform="translate(-216.077 -177.607)" fill="#fff" stroke="#fff" stroke-miterlimit="10" stroke-width="0.5"/>
      <path id="Path_1025" data-name="Path 1025" d="M344.739,236.869a.869.869,0,1,0-.869.869A.869.869,0,0,0,344.739,236.869Z" transform="translate(-237.609 -152.091)" fill="#fff" stroke="#fff" stroke-miterlimit="10" stroke-width="0.5"/>
      <path id="Path_1026" data-name="Path 1026" d="M241.959,261.989a.869.869,0,1,0-.869.869A.869.869,0,0,0,241.959,261.989Z" transform="translate(-179.51 -166.29)" fill="#fff" stroke="#fff" stroke-miterlimit="10" stroke-width="0.5"/>
      <path id="Path_1027" data-name="Path 1027" d="M150.869,228.769a.869.869,0,1,0-.869.869A.869.869,0,0,0,150.869,228.769Z" transform="translate(-128.018 -147.512)" fill="#fff" stroke="#fff" stroke-miterlimit="10" stroke-width="0.5"/>
      <path id="Path_1028" data-name="Path 1028" d="M166.269,208.079a.869.869,0,1,0-.869.869A.869.869,0,0,0,166.269,208.079Z" transform="translate(-136.724 -135.816)" fill="#fff" stroke="#fff" stroke-miterlimit="10" stroke-width="0.5"/>
      <path id="Path_1029" data-name="Path 1029" d="M242.179,150.219a.869.869,0,1,0-.869.869A.869.869,0,0,0,242.179,150.219Z" transform="translate(-179.634 -103.109)" fill="#fff" stroke="#fff" stroke-miterlimit="10" stroke-width="0.5"/>
      <path id="Path_1030" data-name="Path 1030" d="M360.989,155.279a.869.869,0,1,0-.869.869A.869.869,0,0,0,360.989,155.279Z" transform="translate(-246.795 -105.97)" fill="#fff" stroke="#fff" stroke-miterlimit="10" stroke-width="0.5"/>
      <path id="Path_1031" data-name="Path 1031" d="M138.329,164.959a.869.869,0,1,0-.869.869A.869.869,0,0,0,138.329,164.959Z" transform="translate(-120.93 -111.441)" fill="#fff" stroke="#fff" stroke-miterlimit="10" stroke-width="0.5"/>
      <line id="Line_13" data-name="Line 13" y1="3.678" x2="6.834" transform="translate(114.185 45.289)" fill="none" stroke="#fff" stroke-miterlimit="10" stroke-width="0.5"/>
      <line id="Line_14" data-name="Line 14" x1="4.617" y1="0.869" transform="translate(11.061 52.649)" fill="none" stroke="#fff" stroke-miterlimit="10" stroke-width="0.5"/>
      <line id="Line_15" data-name="Line 15" y1="8.16" transform="translate(28.684 63.243)" fill="none" stroke="#fff" stroke-miterlimit="10" stroke-width="0.5"/>
      <line id="Line_16" data-name="Line 16" x1="7.025" y2="1.169" transform="translate(14.104 81.258)" fill="none" stroke="#fff" stroke-miterlimit="10" stroke-width="0.5"/>
      <line id="Line_17" data-name="Line 17" x1="0.643" y2="3.782" transform="translate(60.749 96.547)" fill="none" stroke="#fff" stroke-miterlimit="10" stroke-width="0.5"/>
      <line id="Line_18" data-name="Line 18" x2="2.013" y2="4.382" transform="translate(90.037 105.233)" fill="none" stroke="#fff" stroke-miterlimit="10" stroke-width="0.5"/>
      <line id="Line_19" data-name="Line 19" x2="5.843" y2="1.252" transform="translate(107.117 84.796)" fill="none" stroke="#fff" stroke-miterlimit="10" stroke-width="0.5"/>
      <line id="Line_20" data-name="Line 20" x1="5.673" y1="5.46" transform="translate(88.889 84.54)" fill="none" stroke="#fff" stroke-miterlimit="10" stroke-width="0.5"/>
      <line id="Line_21" data-name="Line 21" y1="7.69" x2="2.587" transform="translate(87.954 28.495)" fill="none" stroke="#fff" stroke-miterlimit="10" stroke-width="0.5"/>
      <line id="Line_22" data-name="Line 22" x2="1.095" y2="0.822" transform="translate(32.958 32.156)" fill="none" stroke="#fff" stroke-miterlimit="10" stroke-width="0.5"/>
      <line id="Line_23" data-name="Line 23" y1="1.643" x2="1.23" transform="translate(41.313 107.615)" fill="none" stroke="#fff" stroke-miterlimit="10" stroke-width="0.5"/>
      <circle id="Ellipse_95" data-name="Ellipse 95" cx="4.73" cy="4.73" r="4.73" transform="translate(79.301 84.093) rotate(-69.36)" fill="#fff" stroke="#fff" stroke-miterlimit="10" stroke-width="0.5"/>
      <path id="Path_1032" data-name="Path 1032" d="M295.183,229.35H292.1a1.087,1.087,0,0,0-1.087,1.087v2.608a4.238,4.238,0,0,0,5.26-.039v-2.547a1.087,1.087,0,0,0-1.087-1.109Z" transform="translate(-208.22 -148.331)" fill="#f2f2f2"/>
      <path id="Path_1033" data-name="Path 1033" d="M294.9,224.169a1.569,1.569,0,1,0-1.569-1.569A1.569,1.569,0,0,0,294.9,224.169Z" transform="translate(-209.532 -143.628)" fill="#f2f2f2"/>
      <circle id="Ellipse_96" data-name="Ellipse 96" cx="4.73" cy="4.73" r="4.73" transform="translate(89.962 61.728) rotate(-69.51)" fill="#fff" stroke="#fff" stroke-miterlimit="10" stroke-width="0.5"/>
      <path id="Path_1034" data-name="Path 1034" d="M319.678,177.85h-3.091a1.087,1.087,0,0,0-1.087,1.087v2.608a4.238,4.238,0,0,0,5.26-.039v-2.547a1.087,1.087,0,0,0-1.082-1.109Z" transform="translate(-222.064 -119.22)" fill="#f2f2f2"/>
      <path id="Path_1035" data-name="Path 1035" d="M319.4,172.669a1.569,1.569,0,1,0-1.569-1.569A1.569,1.569,0,0,0,319.4,172.669Z" transform="translate(-223.381 -114.517)" fill="#f2f2f2"/>
    </g>
  </g>
</svg>
